<svg id="Layer_1" data-name="Layer 1" xmlns="http://www.w3.org/2000/svg" xmlns:xlink="http://www.w3.org/1999/xlink" viewBox="0 0 202.39 73.2"><defs><style>.cls-1{fill:none;}.cls-2{opacity:0.18;}.cls-3{clip-path:url(#clip-path);}.cls-4,.cls-70{opacity:0.86;}.cls-5{fill:url(#radial-gradient);}.cls-6{fill:#fbdf00;}.cls-7{fill:#663515;}.cls-8{fill:url(#linear-gradient);}.cls-9{fill:url(#linear-gradient-2);}.cls-10{fill:url(#linear-gradient-3);}.cls-11{fill:url(#linear-gradient-4);}.cls-12{fill:url(#linear-gradient-6);}.cls-13{fill:url(#linear-gradient-7);}.cls-14{fill:url(#linear-gradient-8);}.cls-15{fill:url(#linear-gradient-9);}.cls-16{fill:url(#radial-gradient-76);}.cls-17{fill:url(#linear-gradient-10);}.cls-18{fill:url(#linear-gradient-11);}.cls-19{fill:url(#radial-gradient-77);}.cls-20{fill:url(#radial-gradient-78);}.cls-21{fill:url(#radial-gradient-79);}.cls-22{fill:url(#radial-gradient-80);}.cls-23{fill:url(#linear-gradient-12);}.cls-24{fill:url(#linear-gradient-13);}.cls-25{fill:url(#linear-gradient-14);}.cls-26{fill:url(#linear-gradient-15);}.cls-27{fill:url(#linear-gradient-16);}.cls-28{fill:url(#linear-gradient-17);}.cls-29{fill:url(#linear-gradient-18);}.cls-30{fill:url(#linear-gradient-19);}.cls-31{fill:url(#linear-gradient-20);}.cls-32{fill:url(#linear-gradient-21);}.cls-33{fill:url(#linear-gradient-22);}.cls-34{fill:url(#radial-gradient-81);}.cls-35{fill:url(#radial-gradient-82);}.cls-36{fill:url(#radial-gradient-83);}.cls-37{fill:url(#radial-gradient-84);}.cls-38{fill:url(#radial-gradient-85);}.cls-39{fill:url(#radial-gradient-86);}.cls-40{fill:url(#radial-gradient-87);}.cls-41{fill:url(#radial-gradient-88);}.cls-42{fill:url(#radial-gradient-89);}.cls-43{fill:url(#radial-gradient-90);}.cls-44{fill:url(#radial-gradient-91);}.cls-45{fill:url(#linear-gradient-23);}.cls-46{fill:url(#linear-gradient-24);}.cls-47{fill:url(#linear-gradient-25);}.cls-48{fill:url(#linear-gradient-26);}.cls-49{fill:url(#linear-gradient-27);}.cls-50{fill:url(#linear-gradient-28);}.cls-51{fill:url(#linear-gradient-29);}.cls-52{fill:url(#linear-gradient-30);}.cls-53{fill:url(#linear-gradient-31);}.cls-54{fill:url(#linear-gradient-32);}.cls-55{fill:url(#linear-gradient-33);}.cls-56{fill:url(#linear-gradient-34);}.cls-57{fill:url(#radial-gradient-92);}.cls-58{fill:url(#radial-gradient-93);}.cls-59{fill:url(#linear-gradient-35);}.cls-60{fill:url(#radial-gradient-94);}.cls-61{fill:url(#radial-gradient-95);}.cls-62{fill:url(#radial-gradient-96);}.cls-63{fill:url(#radial-gradient-97);}.cls-64{fill:url(#radial-gradient-98);}.cls-65{fill:url(#radial-gradient-99);}.cls-66{fill:url(#radial-gradient-100);}.cls-67{fill:url(#radial-gradient-101);}.cls-68{fill:url(#radial-gradient-102);}.cls-69{fill:url(#radial-gradient-103);}.cls-70{fill:url(#White_Black);}.cls-71{fill:url(#radial-gradient-104);}.cls-72{fill:#231f20;}</style><clipPath id="clip-path" transform="translate(-142.02 -244.1)"><path class="cls-1" d="M112.35,251.42c-11.39,13.94-9,36.19,2.3,50.92,11,14.46,30.13,21,46.31,20.31,26.15-1.17,47.27-21.47,63.72-37.29,13.77-13.23,20.6-24,37.78-28.79,2.22-.62,11.09-2.95,25-1.52,39,4,64.07,32.28,65.36,30.92,1-1.08-14.42-19.27-40.4-31.52A146,146,0,0,0,289.06,246c-14.44-4.14-24.28-5.05-45-7.28-47.08-5-47.69-5.83-61.09-6.06-23.84-.4-34.56,1.88-41.72,3.94C129.39,240,119.31,242.9,112.35,251.42Z"/></clipPath><radialGradient id="radial-gradient" cx="232" cy="276.82" fx="291.44024603211255" fy="324.43384114693265" r="76.16" gradientUnits="userSpaceOnUse"><stop offset="0.2" stop-color="#fff"/><stop offset="0.21" stop-color="#f2f2f2"/><stop offset="0.25" stop-color="#c7c6c7"/><stop offset="0.28" stop-color="#a09e9f"/><stop offset="0.32" stop-color="#7e7c7c"/><stop offset="0.36" stop-color="#625f5f"/><stop offset="0.41" stop-color="#4b4748"/><stop offset="0.46" stop-color="#393536"/><stop offset="0.53" stop-color="#2c2829"/><stop offset="0.61" stop-color="#252122"/><stop offset="0.8" stop-color="#231f20"/></radialGradient><linearGradient id="linear-gradient" x2="1" gradientTransform="matrix(0, -19.33, -19.33, 0, 139.38, 324.06)" gradientUnits="userSpaceOnUse"><stop offset="0" stop-color="#653515"/><stop offset="0.42" stop-color="#653515"/><stop offset="0.68" stop-color="#a7800c"/><stop offset="1" stop-color="#fbde00"/></linearGradient><linearGradient id="linear-gradient-2" x2="1" gradientTransform="matrix(0, 60.28, 60.28, 0, 139.38, 246.49)" gradientUnits="userSpaceOnUse"><stop offset="0" stop-color="#fbde00"/><stop offset="0.04" stop-color="#fbde00"/><stop offset="1" stop-color="#fbde00"/></linearGradient><linearGradient id="linear-gradient-3" x2="1" gradientTransform="matrix(5.37, -16.82, -16.82, -5.37, 160.46, 261.66)" gradientUnits="userSpaceOnUse"><stop offset="0" stop-color="#653515"/><stop offset="0.7" stop-color="#653515"/><stop offset="0.78" stop-color="#a7800c"/><stop offset="0.88" stop-color="#fbde00"/><stop offset="1" stop-color="#fbde00"/></linearGradient><linearGradient id="linear-gradient-4" x2="1" gradientTransform="matrix(0, -41, -41, 0, 139.38, 345.68)" gradientUnits="userSpaceOnUse"><stop offset="0" stop-color="#fbde00"/><stop offset="0.52" stop-color="#fbde00"/><stop offset="0.57" stop-color="#f4d601"/><stop offset="0.66" stop-color="#e0c004"/><stop offset="0.77" stop-color="#c09c08"/><stop offset="0.89" stop-color="#946a0e"/><stop offset="1" stop-color="#653515"/></linearGradient><linearGradient id="linear-gradient-6" x2="1" gradientTransform="matrix(0, 46.52, 46.52, 0, 139.38, 249.08)" gradientUnits="userSpaceOnUse"><stop offset="0" stop-color="#fbde00"/><stop offset="0.03" stop-color="#fbde00"/><stop offset="0.05" stop-color="#fbda02" stop-opacity="0.94"/><stop offset="0.09" stop-color="#fbcf08" stop-opacity="0.8"/><stop offset="0.17" stop-color="#faca0b" stop-opacity="0.71"/><stop offset="0.32" stop-color="#f9c013" stop-opacity="0.5"/><stop offset="0.44" stop-color="#fbcf08" stop-opacity="0.2"/><stop offset="0.5" stop-color="#faca0b" stop-opacity="0.29"/><stop offset="0.61" stop-color="#f9c013" stop-opacity="0.5"/><stop offset="0.92" stop-color="#fbcf08" stop-opacity="0.5"/><stop offset="0.95" stop-color="#fbd405" stop-opacity="0.68"/><stop offset="0.98" stop-color="#fbde00"/><stop offset="1" stop-color="#fbde00"/></linearGradient><linearGradient id="linear-gradient-7" x2="1" gradientTransform="matrix(0, 56.57, 56.57, 0, 139.38, 247.76)" gradientUnits="userSpaceOnUse"><stop offset="0" stop-color="#32150c" stop-opacity="0"/><stop offset="0.02" stop-color="#32150c" stop-opacity="0"/><stop offset="0.1" stop-color="#32150c" stop-opacity="0.2"/><stop offset="0.34" stop-color="#32150c" stop-opacity="0.5"/><stop offset="0.63" stop-color="#32150c" stop-opacity="0.2"/><stop offset="0.86" stop-color="#32150c" stop-opacity="0.5"/><stop offset="1" stop-color="#32150c" stop-opacity="0"/><stop offset="1" stop-color="#32150c" stop-opacity="0"/></linearGradient><linearGradient id="linear-gradient-8" x2="1" gradientTransform="matrix(2.74, -4.86, -4.86, -2.74, 159.25, 249.42)" gradientUnits="userSpaceOnUse"><stop offset="0" stop-color="#fbde00" stop-opacity="0"/><stop offset="0.8" stop-color="#fbde00" stop-opacity="0"/><stop offset="0.83" stop-color="#efd002" stop-opacity="0.08"/><stop offset="0.87" stop-color="#ceab06" stop-opacity="0.3"/><stop offset="0.91" stop-color="#996f0e" stop-opacity="0.65"/><stop offset="0.95" stop-color="#653515"/><stop offset="1" stop-color="#653515"/></linearGradient><linearGradient id="linear-gradient-9" x2="1" gradientTransform="matrix(17.49, 0, 0, -17.49, 145.94, 227.32)" gradientUnits="userSpaceOnUse"><stop offset="0" stop-color="#fbde00"/><stop offset="0.03" stop-color="#fbde00"/><stop offset="0.05" stop-color="#f3d600" stop-opacity="0.98"/><stop offset="0.08" stop-color="#dec102" stop-opacity="0.93"/><stop offset="0.11" stop-color="#bc9f04" stop-opacity="0.84"/><stop offset="0.16" stop-color="#8c6f07" stop-opacity="0.72"/><stop offset="0.21" stop-color="#4f320a" stop-opacity="0.57"/><stop offset="0.23" stop-color="#32150c" stop-opacity="0.5"/><stop offset="0.42" stop-color="#32150c"/><stop offset="0.56" stop-color="#32150c"/><stop offset="0.66" stop-color="#32150c" stop-opacity="0.5"/><stop offset="0.8" stop-color="#32150c" stop-opacity="0"/><stop offset="1" stop-color="#32150c" stop-opacity="0"/></linearGradient><radialGradient id="radial-gradient-76" cx="0" cy="0" r="1" gradientTransform="matrix(3.22, 1.36, -0.97, 2.31, 151.41, 245.89)" gradientUnits="userSpaceOnUse"><stop offset="0" stop-color="#fff" stop-opacity="0.85"/><stop offset="0.68" stop-color="#fff" stop-opacity="0.5"/><stop offset="1" stop-color="#fff" stop-opacity="0"/></radialGradient><linearGradient id="linear-gradient-10" x2="1" gradientTransform="matrix(0, -19.33, -19.33, 0, 139.38, 324.06)" gradientUnits="userSpaceOnUse"><stop offset="0" stop-color="#fbde00"/><stop offset="0.36" stop-color="#fbde00"/><stop offset="0.37" stop-color="#f4d601"/><stop offset="0.38" stop-color="#e0c004"/><stop offset="0.39" stop-color="#c09c08"/><stop offset="0.4" stop-color="#946a0e"/><stop offset="0.42" stop-color="#653515"/><stop offset="0.68" stop-color="#a7800c"/><stop offset="1" stop-color="#fbde00"/></linearGradient><linearGradient id="linear-gradient-11" x2="1" gradientTransform="matrix(0, -41, -41, 0, 139.38, 345.68)" gradientUnits="userSpaceOnUse"><stop offset="0" stop-color="#fbde00"/><stop offset="0.69" stop-color="#fbde00"/><stop offset="0.72" stop-color="#f6d901" stop-opacity="0.97"/><stop offset="0.76" stop-color="#e9ca03" stop-opacity="0.88"/><stop offset="0.81" stop-color="#d3b106" stop-opacity="0.73"/><stop offset="0.87" stop-color="#b58f0a" stop-opacity="0.53"/><stop offset="0.93" stop-color="#8f640f" stop-opacity="0.28"/><stop offset="0.99" stop-color="#653515" stop-opacity="0"/><stop offset="1" stop-color="#653515" stop-opacity="0"/></linearGradient><radialGradient id="radial-gradient-77" cx="0" cy="0" r="1" gradientTransform="translate(154.82 298.03) scale(4.85 4.85)" gradientUnits="userSpaceOnUse"><stop offset="0" stop-color="#32150c"/><stop offset="0.54" stop-color="#32150c" stop-opacity="0.5"/><stop offset="1" stop-color="#32150c" stop-opacity="0"/></radialGradient><radialGradient id="radial-gradient-78" cx="0" cy="0" r="1" gradientTransform="matrix(2.63, 0, 0, -2.63, 154.61, 300.45)" gradientUnits="userSpaceOnUse"><stop offset="0" stop-color="#fff" stop-opacity="0.85"/><stop offset="0.4" stop-color="#fff" stop-opacity="0.5"/><stop offset="1" stop-color="#fff" stop-opacity="0"/></radialGradient><radialGradient id="radial-gradient-79" cx="0" cy="0" r="1" gradientTransform="translate(155.19 274.08) rotate(90) scale(63.31 0.95)" gradientUnits="userSpaceOnUse"><stop offset="0" stop-color="#fff" stop-opacity="0.7"/><stop offset="0.94" stop-color="#fff" stop-opacity="0"/><stop offset="1" stop-color="#fff" stop-opacity="0"/></radialGradient><radialGradient id="radial-gradient-80" cx="0" cy="0" r="1" gradientTransform="translate(155.22 270.31) rotate(90) scale(32.41 0.68)" gradientUnits="userSpaceOnUse"><stop offset="0" stop-color="#32150c" stop-opacity="0.5"/><stop offset="1" stop-color="#32150c" stop-opacity="0"/></radialGradient><linearGradient id="linear-gradient-12" x2="1" gradientTransform="matrix(14.09, 32.41, 32.41, -14.09, 179.99, 265.96)" gradientUnits="userSpaceOnUse"><stop offset="0" stop-color="#653515"/><stop offset="0.07" stop-color="#653515"/><stop offset="0.25" stop-color="#a7800c"/><stop offset="0.45" stop-color="#fbde00"/><stop offset="0.9" stop-color="#fbde00"/><stop offset="1" stop-color="#fbde00"/></linearGradient><linearGradient id="linear-gradient-13" x2="1" gradientTransform="matrix(32.92, -38.51, -38.51, -32.92, 198.77, 285.82)" gradientUnits="userSpaceOnUse"><stop offset="0" stop-color="#653515"/><stop offset="0.24" stop-color="#653515"/><stop offset="0.36" stop-color="#a7800c"/><stop offset="0.51" stop-color="#fbde00"/><stop offset="1" stop-color="#fbde00"/></linearGradient><linearGradient id="linear-gradient-14" x2="1" gradientTransform="matrix(0, 20.24, 20.24, 0, 169.19, 271.45)" gradientUnits="userSpaceOnUse"><stop offset="0" stop-color="#fbde00"/><stop offset="0.1" stop-color="#fbde00"/><stop offset="0.58" stop-color="#fbde00"/><stop offset="0.63" stop-color="#f4d601"/><stop offset="0.7" stop-color="#e0c004"/><stop offset="0.79" stop-color="#c09c08"/><stop offset="0.88" stop-color="#946a0e"/><stop offset="0.97" stop-color="#653515"/><stop offset="1" stop-color="#653515"/></linearGradient><linearGradient id="linear-gradient-15" x2="1" gradientTransform="matrix(-11.14, 25.76, 25.76, 11.14, 219.52, 269.39)" gradientUnits="userSpaceOnUse"><stop offset="0" stop-color="#653515"/><stop offset="0.13" stop-color="#653515"/><stop offset="0.76" stop-color="#653515"/><stop offset="0.87" stop-color="#a7800c"/><stop offset="1" stop-color="#fbde00"/></linearGradient><linearGradient id="linear-gradient-16" x2="1" gradientTransform="matrix(10.69, -24.58, -24.58, -10.69, 186.62, 297.77)" gradientUnits="userSpaceOnUse"><stop offset="0" stop-color="#653515"/><stop offset="0.39" stop-color="#653515"/><stop offset="0.61" stop-color="#a7800c"/><stop offset="0.87" stop-color="#fbde00"/><stop offset="1" stop-color="#fbde00"/></linearGradient><linearGradient id="linear-gradient-17" x2="1" gradientTransform="matrix(-16.74, 44.76, 44.76, 16.74, 216.65, 248.74)" gradientUnits="userSpaceOnUse"><stop offset="0" stop-color="#653515"/><stop offset="0.17" stop-color="#653515"/><stop offset="0.38" stop-color="#a7800c"/><stop offset="0.63" stop-color="#fbde00"/><stop offset="1" stop-color="#fbde00"/></linearGradient><linearGradient id="linear-gradient-18" x2="1" gradientTransform="matrix(46.14, 37.07, 37.07, -46.14, 183.5, 263.43)" gradientUnits="userSpaceOnUse"><stop offset="0" stop-color="#32150c" stop-opacity="0"/><stop offset="0.05" stop-color="#32150c" stop-opacity="0"/><stop offset="0.14" stop-color="#32150c" stop-opacity="0.2"/><stop offset="0.34" stop-color="#32150c" stop-opacity="0.5"/><stop offset="0.63" stop-color="#32150c" stop-opacity="0.2"/><stop offset="0.86" stop-color="#32150c" stop-opacity="0.5"/><stop offset="0.95" stop-color="#32150c" stop-opacity="0"/><stop offset="0.95" stop-color="#45280b" stop-opacity="0.1"/><stop offset="0.96" stop-color="#7c5f08" stop-opacity="0.37"/><stop offset="0.97" stop-color="#a98c05" stop-opacity="0.59"/><stop offset="0.98" stop-color="#ccaf03" stop-opacity="0.77"/><stop offset="0.99" stop-color="#e6c901" stop-opacity="0.9"/><stop offset="0.99" stop-color="#f5d800" stop-opacity="0.97"/><stop offset="1" stop-color="#fbde00"/><stop offset="1" stop-color="#fbde00"/></linearGradient><linearGradient id="linear-gradient-19" x2="1" gradientTransform="matrix(0, 20.33, 20.33, 0, 169.19, 269.39)" gradientUnits="userSpaceOnUse"><stop offset="0" stop-color="#32150c" stop-opacity="0"/><stop offset="0.02" stop-color="#32150c" stop-opacity="0"/><stop offset="0.07" stop-color="#32150c" stop-opacity="0.2"/><stop offset="0.27" stop-color="#32150c" stop-opacity="0.5"/><stop offset="0.63" stop-color="#32150c" stop-opacity="0.2"/><stop offset="0.98" stop-color="#32150c"/><stop offset="1" stop-color="#32150c"/></linearGradient><linearGradient id="linear-gradient-20" x2="1" gradientTransform="matrix(33.79, 33.79, 33.79, -33.79, 192.15, 269.04)" gradientUnits="userSpaceOnUse"><stop offset="0" stop-color="#fbde00"/><stop offset="0.02" stop-color="#fbde00"/><stop offset="0.08" stop-color="#fbda02" stop-opacity="0.94"/><stop offset="0.23" stop-color="#fbcf08" stop-opacity="0.8"/><stop offset="0.28" stop-color="#faca0b" stop-opacity="0.71"/><stop offset="0.39" stop-color="#f9c013" stop-opacity="0.5"/><stop offset="0.5" stop-color="#fbcf08" stop-opacity="0.2"/><stop offset="0.59" stop-color="#faca0b" stop-opacity="0.29"/><stop offset="0.74" stop-color="#f9c013" stop-opacity="0.5"/><stop offset="0.92" stop-color="#fbcf08" stop-opacity="0.5"/><stop offset="0.95" stop-color="#fbd405" stop-opacity="0.68"/><stop offset="0.99" stop-color="#fbde00"/><stop offset="1" stop-color="#fbde00"/></linearGradient><linearGradient id="linear-gradient-21" x2="1" gradientTransform="matrix(-4.36, -11.37, -11.37, 4.36, 202.55, 255.65)" gradientUnits="userSpaceOnUse"><stop offset="0" stop-color="#fbde00"/><stop offset="0.01" stop-color="#fbde00"/><stop offset="0.02" stop-color="#f4d700" stop-opacity="0.97"/><stop offset="0.04" stop-color="#e1c402" stop-opacity="0.87"/><stop offset="0.06" stop-color="#c2a503" stop-opacity="0.72"/><stop offset="0.08" stop-color="#977a06" stop-opacity="0.5"/><stop offset="0.11" stop-color="#604309" stop-opacity="0.23"/><stop offset="0.13" stop-color="#32150c" stop-opacity="0"/><stop offset="0.29" stop-color="#32150c"/><stop offset="0.85" stop-color="#32150c" stop-opacity="0.5"/><stop offset="1" stop-color="#32150c" stop-opacity="0"/></linearGradient><linearGradient id="linear-gradient-22" x2="1" gradientTransform="matrix(10.79, 0, 0, -10.79, 208.07, 227.32)" gradientUnits="userSpaceOnUse"><stop offset="0" stop-color="#fbde00"/><stop offset="0.08" stop-color="#fbde00"/><stop offset="0.11" stop-color="#f3d600" stop-opacity="0.98"/><stop offset="0.16" stop-color="#dec102" stop-opacity="0.93"/><stop offset="0.22" stop-color="#bc9f04" stop-opacity="0.84"/><stop offset="0.29" stop-color="#8c6f07" stop-opacity="0.72"/><stop offset="0.37" stop-color="#4f320a" stop-opacity="0.57"/><stop offset="0.41" stop-color="#32150c" stop-opacity="0.5"/><stop offset="0.55" stop-color="#32150c"/><stop offset="0.71" stop-color="#32150c"/><stop offset="0.93" stop-color="#32150c" stop-opacity="0.5"/><stop offset="1" stop-color="#32150c" stop-opacity="0"/></linearGradient><radialGradient id="radial-gradient-81" cx="0" cy="0" r="1" gradientTransform="translate(204.4 250.7) scale(2.99 2.99)" gradientUnits="userSpaceOnUse"><stop offset="0" stop-color="#fff" stop-opacity="0.85"/><stop offset="0.53" stop-color="#fff" stop-opacity="0.5"/><stop offset="1" stop-color="#fff" stop-opacity="0"/></radialGradient><radialGradient id="radial-gradient-82" cx="0" cy="0" r="1" gradientTransform="translate(214.41 271.89) scale(2.6 2.6)" gradientUnits="userSpaceOnUse"><stop offset="0" stop-color="#fff" stop-opacity="0.85"/><stop offset="0.51" stop-color="#fff" stop-opacity="0.5"/><stop offset="1" stop-color="#fff" stop-opacity="0"/></radialGradient><radialGradient id="radial-gradient-83" gradientTransform="translate(221.09 297.82) scale(3.85 3.85)" xlink:href="#radial-gradient-81"/><radialGradient id="radial-gradient-84" gradientTransform="translate(208.75 292.94) scale(4.19 4.19)" xlink:href="#radial-gradient-81"/><radialGradient id="radial-gradient-85" gradientTransform="translate(184.56 267.37) scale(5.59 5.59)" xlink:href="#radial-gradient-77"/><radialGradient id="radial-gradient-86" cx="0" cy="0" r="1" gradientTransform="translate(185.24 297.47) scale(7.24 7.24)" gradientUnits="userSpaceOnUse"><stop offset="0" stop-color="#fff" stop-opacity="0.85"/><stop offset="0.4" stop-color="#fff" stop-opacity="0.5"/><stop offset="1" stop-color="#fff" stop-opacity="0"/></radialGradient><radialGradient id="radial-gradient-87" gradientTransform="translate(185.18 268.85) scale(3.81 3.81)" xlink:href="#radial-gradient-81"/><radialGradient id="radial-gradient-88" gradientTransform="translate(186.59 293.89) scale(10.18 10.18)" xlink:href="#radial-gradient-77"/><radialGradient id="radial-gradient-89" gradientTransform="translate(207.42 291.2) scale(5.76 5.76)" xlink:href="#radial-gradient-77"/><radialGradient id="radial-gradient-90" gradientTransform="matrix(10.32, 10.35, -0.67, 0.67, 197.17, 278.89)" xlink:href="#radial-gradient-79"/><radialGradient id="radial-gradient-91" gradientTransform="matrix(15.24, 13.93, -0.46, 0.5, 201.43, 282.82)" xlink:href="#radial-gradient-80"/><linearGradient id="linear-gradient-23" x2="1" gradientTransform="matrix(13.49, 52.96, 52.96, -13.49, 233.17, 246.91)" gradientUnits="userSpaceOnUse"><stop offset="0" stop-color="#fbde00"/><stop offset="0.02" stop-color="#fbde00"/><stop offset="0.04" stop-color="#fbde00"/><stop offset="0.93" stop-color="#fbde00"/><stop offset="0.94" stop-color="#f4d601"/><stop offset="0.94" stop-color="#e0c004"/><stop offset="0.95" stop-color="#c09c08"/><stop offset="0.96" stop-color="#946a0e"/><stop offset="0.97" stop-color="#653515"/><stop offset="1" stop-color="#653515"/></linearGradient><linearGradient id="linear-gradient-24" x2="1" gradientTransform="matrix(15.85, -49.68, -49.68, -15.85, 241.66, 296.79)" gradientUnits="userSpaceOnUse"><stop offset="0" stop-color="#653515"/><stop offset="0.93" stop-color="#653515"/><stop offset="0.96" stop-color="#a7800c"/><stop offset="0.99" stop-color="#fbde00"/><stop offset="1" stop-color="#fbde00"/></linearGradient><linearGradient id="linear-gradient-25" x2="1" gradientTransform="matrix(0, -31.36, -31.36, 0, 228.3, 276.95)" gradientUnits="userSpaceOnUse"><stop offset="0" stop-color="#653515"/><stop offset="0.97" stop-color="#653515"/><stop offset="0.98" stop-color="#a7800c"/><stop offset="1" stop-color="#fbde00"/></linearGradient><linearGradient id="linear-gradient-26" x2="1" gradientTransform="matrix(0, -24.07, -24.07, 0, 228.3, 269.69)" gradientUnits="userSpaceOnUse"><stop offset="0" stop-color="#fbde00"/><stop offset="0.93" stop-color="#fbde00"/><stop offset="1" stop-color="#fbde00"/></linearGradient><linearGradient id="linear-gradient-27" gradientTransform="matrix(0, 45.1, 45.1, 0, 228.3, 249.76)" xlink:href="#linear-gradient-7"/><linearGradient id="linear-gradient-28" x2="1" gradientTransform="matrix(0, 46.78, 46.78, 0, 228.3, 247.79)" gradientUnits="userSpaceOnUse"><stop offset="0" stop-color="#fbde00"/><stop offset="0.03" stop-color="#fbde00"/><stop offset="0.05" stop-color="#fbda02" stop-opacity="0.94"/><stop offset="0.09" stop-color="#fbcf08" stop-opacity="0.8"/><stop offset="0.17" stop-color="#faca0b" stop-opacity="0.71"/><stop offset="0.32" stop-color="#f9c013" stop-opacity="0.5"/><stop offset="0.44" stop-color="#fbcf08" stop-opacity="0.2"/><stop offset="0.5" stop-color="#faca0b" stop-opacity="0.29"/><stop offset="0.61" stop-color="#f9c013" stop-opacity="0.5"/><stop offset="0.92" stop-color="#fbcf08" stop-opacity="0.5"/><stop offset="0.95" stop-color="#fbd405" stop-opacity="0.68"/><stop offset="0.99" stop-color="#fbde00"/><stop offset="1" stop-color="#fbde00"/></linearGradient><linearGradient id="linear-gradient-29" x2="1" gradientTransform="matrix(-3.74, -5.66, -5.66, 3.74, 251.01, 300.76)" gradientUnits="userSpaceOnUse"><stop offset="0" stop-color="#fbde00"/><stop offset="0.02" stop-color="#fbde00"/><stop offset="0.04" stop-color="#f4d700" stop-opacity="0.97"/><stop offset="0.07" stop-color="#e1c402" stop-opacity="0.87"/><stop offset="0.11" stop-color="#c2a503" stop-opacity="0.72"/><stop offset="0.15" stop-color="#977a06" stop-opacity="0.5"/><stop offset="0.2" stop-color="#604309" stop-opacity="0.23"/><stop offset="0.24" stop-color="#32150c" stop-opacity="0"/><stop offset="0.4" stop-color="#32150c"/><stop offset="0.73" stop-color="#32150c" stop-opacity="0.5"/><stop offset="0.98" stop-color="#32150c" stop-opacity="0"/><stop offset="1" stop-color="#32150c" stop-opacity="0"/></linearGradient><linearGradient id="linear-gradient-30" x2="1" gradientTransform="matrix(4.1, -3.77, -3.77, -4.1, 246.97, 248.3)" gradientUnits="userSpaceOnUse"><stop offset="0" stop-color="#fbde00" stop-opacity="0"/><stop offset="0.67" stop-color="#fbde00" stop-opacity="0"/><stop offset="0.72" stop-color="#efd002" stop-opacity="0.08"/><stop offset="0.79" stop-color="#ceab06" stop-opacity="0.3"/><stop offset="0.88" stop-color="#996f0e" stop-opacity="0.65"/><stop offset="0.95" stop-color="#653515"/><stop offset="1" stop-color="#653515"/></linearGradient><linearGradient id="linear-gradient-31" gradientTransform="matrix(16.91, 0, 0, -16.91, 235.14, 227.32)" xlink:href="#linear-gradient-9"/><linearGradient id="linear-gradient-32" gradientTransform="matrix(14.75, 0, 0, -14.75, 266.2, 227.32)" xlink:href="#linear-gradient-9"/><linearGradient id="linear-gradient-33" x2="1" gradientTransform="matrix(-3.73, 14.35, 14.35, 3.73, 259.09, 270.56)" gradientUnits="userSpaceOnUse"><stop offset="0" stop-color="#32150c"/><stop offset="0.18" stop-color="#32150c" stop-opacity="0.5"/><stop offset="0.4" stop-color="#32150c" stop-opacity="0"/><stop offset="1" stop-color="#32150c" stop-opacity="0"/></linearGradient><linearGradient id="linear-gradient-34" x2="1" gradientTransform="matrix(27.97, 14.48, 14.48, -27.97, 264.74, 286.55)" gradientUnits="userSpaceOnUse"><stop offset="0" stop-color="#32150c" stop-opacity="0"/><stop offset="0.28" stop-color="#32150c"/><stop offset="0.68" stop-color="#32150c" stop-opacity="0.5"/><stop offset="0.72" stop-color="#6e5108" stop-opacity="0.65"/><stop offset="0.75" stop-color="#a08305" stop-opacity="0.77"/><stop offset="0.78" stop-color="#c7aa03" stop-opacity="0.87"/><stop offset="0.81" stop-color="#e4c701" stop-opacity="0.94"/><stop offset="0.83" stop-color="#f5d800" stop-opacity="0.98"/><stop offset="0.84" stop-color="#fbde00"/><stop offset="1" stop-color="#fbde00"/></linearGradient><radialGradient id="radial-gradient-92" gradientTransform="matrix(6.28, 0, 0, -6.28, 278.45, 297.07)" xlink:href="#radial-gradient-76"/><radialGradient id="radial-gradient-93" cx="0" cy="0" r="1" gradientTransform="matrix(2.45, 0.22, -0.13, 1.5, 252.46, 269.52)" gradientUnits="userSpaceOnUse"><stop offset="0" stop-color="#32150c"/><stop offset="0.52" stop-color="#32150c" stop-opacity="0.5"/><stop offset="1" stop-color="#32150c" stop-opacity="0"/></radialGradient><linearGradient id="linear-gradient-35" x2="1" gradientTransform="matrix(5.73, -5.7, -5.7, -5.73, 274.02, 249.89)" gradientUnits="userSpaceOnUse"><stop offset="0" stop-color="#fbde00" stop-opacity="0"/><stop offset="0.76" stop-color="#fbde00" stop-opacity="0"/><stop offset="0.79" stop-color="#efd002" stop-opacity="0.08"/><stop offset="0.84" stop-color="#ceab06" stop-opacity="0.3"/><stop offset="0.9" stop-color="#996f0e" stop-opacity="0.65"/><stop offset="0.96" stop-color="#653515"/><stop offset="1" stop-color="#653515"/></linearGradient><radialGradient id="radial-gradient-94" cx="0" cy="0" r="1" gradientTransform="matrix(5.52, 0, 0, -3.7, 241.93, 300.57)" gradientUnits="userSpaceOnUse"><stop offset="0" stop-color="#fff" stop-opacity="0.85"/><stop offset="0.37" stop-color="#fff" stop-opacity="0.85"/><stop offset="1" stop-color="#fff" stop-opacity="0"/></radialGradient><radialGradient id="radial-gradient-95" gradientTransform="matrix(3.32, 0.73, -0.48, 2.19, 240.65, 245.93)" xlink:href="#radial-gradient-76"/><radialGradient id="radial-gradient-96" cx="0" cy="0" r="1" gradientTransform="matrix(5.07, 0, 0, -5.07, 249.52, 269.58)" gradientUnits="userSpaceOnUse"><stop offset="0" stop-color="#fff" stop-opacity="0.85"/><stop offset="0.43" stop-color="#fff" stop-opacity="0.5"/><stop offset="1" stop-color="#fff" stop-opacity="0"/></radialGradient><radialGradient id="radial-gradient-97" cx="0" cy="0" r="1" gradientTransform="translate(268.92 245.91) scale(1.4 1.4)" gradientUnits="userSpaceOnUse"><stop offset="0" stop-color="#fff" stop-opacity="0.85"/><stop offset="0.46" stop-color="#fff" stop-opacity="0.5"/><stop offset="1" stop-color="#fff" stop-opacity="0"/></radialGradient><radialGradient id="radial-gradient-98" gradientTransform="matrix(20.74, -21.25, 0.16, 0.15, 261.48, 257.97)" xlink:href="#radial-gradient-80"/><radialGradient id="radial-gradient-99" gradientTransform="matrix(17.2, 17.97, 0.48, -0.46, 260.93, 281.87)" xlink:href="#radial-gradient-79"/><radialGradient id="radial-gradient-100" gradientTransform="matrix(15.24, 16.18, 0.42, -0.39, 260.71, 281.55)" xlink:href="#radial-gradient-80"/><radialGradient id="radial-gradient-101" gradientTransform="translate(244.11 272.34) rotate(90) scale(43.93 0.56)" xlink:href="#radial-gradient-80"/><radialGradient id="radial-gradient-102" gradientTransform="matrix(11.59, -11.9, 0.26, 0.26, 262, 257.44)" xlink:href="#radial-gradient-79"/><radialGradient id="radial-gradient-103" gradientTransform="translate(244.14 271.8) rotate(90) scale(71.06 0.92)" xlink:href="#radial-gradient-79"/><linearGradient id="White_Black" x1="294.62" y1="305.17" x2="294.62" y2="305.17" gradientUnits="userSpaceOnUse"><stop offset="0" stop-color="#fff"/><stop offset="1" stop-color="#231f20"/></linearGradient><radialGradient id="radial-gradient-104" cx="155.8" cy="249.49" fx="155.80078125" fy="249.494140625" r="0" xlink:href="#radial-gradient"/></defs><g class="cls-4"><path class="cls-5" d="M142.23,317.26a.24.24,0,0,1-.16,0,.08.08,0,0,1,0-.05c0-.07.13-.27.95-.68a21.89,21.89,0,0,0,3-2.09,13,13,0,0,0,5.36-8.79c.79-4.05.81-9.79.81-18.82V266c0-11.23,0-13.25-.13-15.56-.12-2.11-.59-4.32-3.19-4.71a13.1,13.1,0,0,0-2-.15c-.75,0-.9-.09-.9-.18s.29-.25,1.12-.25c2.43,0,5.63.13,7.16.18l1,0,1.21-.05c1.61-.06,4.32-.17,5.85-.17.81,0,1.12.16,1.12.25s-.26.18-.76.18a8.61,8.61,0,0,0-1.88.15c-1.9.39-2.3,2.5-2.42,4.71s-.16,4.33-.16,15.56v17.28c0,11.73,0,16.12-2.14,21.22a22,22,0,0,1-5.36,7.14,34.22,34.22,0,0,1-8,5.52,1.1,1.1,0,0,1-.45.11" transform="translate(-142.02 -244.1)"/><path class="cls-5" d="M154,304.43l-.05.15H156l.06-.15H154" transform="translate(-142.02 -244.1)"/><path class="cls-5" d="M162.28,245.11c-2.16,0-6.7.21-7.06.21s-4.89-.21-8.13-.21c-.82,0-1.12.13-1.15.26,2.68,0,4.22.13,5.95,1a13.43,13.43,0,0,1,3.33,2.22,14.71,14.71,0,0,1,3-2.28c1.52-.91,2.68-.91,5.22-.91,0-.13-.4-.26-1.15-.26" transform="translate(-142.02 -244.1)"/><path class="cls-5" d="M153.93,304.51h-2.37c-.72,4.75-2.27,7.36-5.55,9.86a23.67,23.67,0,0,1-3,2.09c-.72.36-1.08.65-.93.79,5.52-2.83,9.84-6.77,11.88-12.74" transform="translate(-142.02 -244.1)"/><path class="cls-5" d="M151.89,246.34c-1.73-.84-3.27-1-5.95-1v0c0,.15.29.22.94.22a13.41,13.41,0,0,1,2,.14,3.33,3.33,0,0,1,2.9,2.81,9.69,9.69,0,0,1,.26,1.87c.15,2.31.15,4.32.15,15.56v20.8c0,8.22,0,13.73-.64,17.72h2.37a25.83,25.83,0,0,0,1.29-8.43V248.56a13.63,13.63,0,0,0-3.33-2.22" transform="translate(-142.02 -244.1)"/><path class="cls-5" d="M158.25,266c0-11.24,0-13.25.14-15.56a16.15,16.15,0,0,1,.21-1.87c.3-1.51.91-2.54,2.17-2.81a9.07,9.07,0,0,1,1.87-.14c.43,0,.79-.07.79-.22v0c-2.54,0-3.7,0-5.22.91a14.71,14.71,0,0,0-3,2.28v47.52a25.83,25.83,0,0,1-1.29,8.43h2.16c2.16-5.12,2.16-9.58,2.16-21.24V266" transform="translate(-142.02 -244.1)"/><path class="cls-5" d="M142.05,317.25a.73.73,0,0,0,.64-.07c5.62-2.74,11.31-7.78,13.4-12.67h-2.16c-2,6-6.36,9.91-11.88,12.74" transform="translate(-142.02 -244.1)"/><path class="cls-5" d="M155.22,248.56a13.63,13.63,0,0,0-3.33-2.22c-1.73-.84-3.27-1-5.95-1v0c0,.15.29.22.94.22a13.41,13.41,0,0,1,2,.14,3.33,3.33,0,0,1,2.9,2.81,8.7,8.7,0,0,1,.21,1.21h3.22v-1.21" transform="translate(-142.02 -244.1)"/><path class="cls-5" d="M155.22,249.77H152c0,.22,0,.44.05.66.15,2.31.15,4.32.15,15.56v20.8c0,3.4,0,6.33-.06,8.88h3.08v-45.9" transform="translate(-142.02 -244.1)"/><path class="cls-5" d="M158.21,246.28a14.71,14.71,0,0,0-3,2.28v47.52a25.83,25.83,0,0,1-1.29,8.43h2.16c2.16-5.12,2.16-9.58,2.16-21.24V266c0-11.24,0-13.25.14-15.56a16.15,16.15,0,0,1,.21-1.87,4.48,4.48,0,0,1,.82-2l-.6-.61-.62.33" transform="translate(-142.02 -244.1)"/><path class="cls-5" d="M160.77,245.75a9.07,9.07,0,0,1,1.87-.14c.43,0,.79-.07.79-.22v0a12.63,12.63,0,0,0-4,.36l.44.44a2.31,2.31,0,0,1,.94-.42" transform="translate(-142.02 -244.1)"/><path class="cls-5" d="M162.28,245.11c-2.16,0-6.7.21-7.06.21s-4.89-.21-8.13-.21c-.82,0-1.12.13-1.15.26,2.68,0,4.22.13,5.95,1a13.43,13.43,0,0,1,3.33,2.22,14.71,14.71,0,0,1,3-2.28c1.52-.91,2.68-.91,5.22-.91,0-.13-.4-.26-1.15-.26" transform="translate(-142.02 -244.1)"/><path class="cls-5" d="M155.22,248.56a13.63,13.63,0,0,0-3.33-2.22c-1.73-.84-3.27-1-5.95-1v0c0,.15.29.22.94.22a13.41,13.41,0,0,1,2,.14,3.33,3.33,0,0,1,2.9,2.81c0,.06,0,.13.05.19h3.38v-.19" transform="translate(-142.02 -244.1)"/><path class="cls-5" d="M153.93,304.51h-2.37c-.72,4.75-2.27,7.36-5.55,9.86a23.67,23.67,0,0,1-3,2.09c-.72.36-1.08.65-.93.79,5.52-2.83,9.84-6.77,11.88-12.74" transform="translate(-142.02 -244.1)"/><path class="cls-5" d="M142.05,317.25a.73.73,0,0,0,.64-.07c5.62-2.74,11.31-7.78,13.4-12.67h-2.16c-2,6-6.36,9.91-11.88,12.74" transform="translate(-142.02 -244.1)"/><path class="cls-5" d="M155.22,291.46v4.62a25.83,25.83,0,0,1-1.29,8.43h2.16c1.56-3.7,2-7.06,2.11-13.05h-3" transform="translate(-142.02 -244.1)"/><path class="cls-5" d="M153.93,304.51a25.83,25.83,0,0,0,1.29-8.43v-.41h-3.08a67.58,67.58,0,0,1-.58,8.84h2.37" transform="translate(-142.02 -244.1)"/><path class="cls-5" d="M151.89,246.34c-1.73-.84-3.27-1-5.95-1v0c0,.15.29.22.94.22a13.41,13.41,0,0,1,2,.14,3.33,3.33,0,0,1,2.9,2.81,9.69,9.69,0,0,1,.26,1.87c.15,2.31.15,4.32.15,15.56v20.8c0,8.22,0,13.73-.64,17.72h2.37a25.83,25.83,0,0,0,1.29-8.43V248.56a13.63,13.63,0,0,0-3.33-2.22" transform="translate(-142.02 -244.1)"/><path class="cls-5" d="M158.25,266c0-11.24,0-13.25.14-15.56a16.15,16.15,0,0,1,.21-1.87c.3-1.51.91-2.54,2.17-2.81a9.07,9.07,0,0,1,1.87-.14c.43,0,.79-.07.79-.22v0c-2.54,0-3.7,0-5.22.91a14.71,14.71,0,0,0-3,2.28v47.52a25.83,25.83,0,0,1-1.29,8.43h2.16c2.16-5.12,2.16-9.58,2.16-21.24V266" transform="translate(-142.02 -244.1)"/><path class="cls-5" d="M184.74,269.12h0c-4,2.63-6.06,6.71-6.06,12.13a16,16,0,0,0,4.08,11.07,13.73,13.73,0,0,0,10.14,4.3,22.18,22.18,0,0,0,8.34-1.5,15.19,15.19,0,0,0,5.15-3.41s0,0,0,0v0c-4.05-3.4-11.08-10.35-13-12.38a114.42,114.42,0,0,1-8.64-10.15h0m5.55,31.39c-7.07,0-11.21-3-13.45-5.6a16.11,16.11,0,0,1-4-10.28,18,18,0,0,1,3.32-10.57,23.93,23.93,0,0,1,7.53-6.75l0,0a0,0,0,0,0,0,0,15.86,15.86,0,0,1-3.38-9.91,12.81,12.81,0,0,1,4.11-8.74,16.09,16.09,0,0,1,11.34-4.48,29.78,29.78,0,0,1,7.91,1.28c.88.23,1.64.43,2.23.52a.24.24,0,0,1,.15.1c.11.17,0,.54-.08.94l0,.07c-.19.7-.38,2.18-.58,3.74-.11.89-.23,1.8-.36,2.67-.07.42-.28,1.7-.47,1.7s-.11-.29-.11-1.26a8.08,8.08,0,0,0-.29-2.75c-.34-1.3-1.58-2.49-3.48-3.35a15.67,15.67,0,0,0-6.34-1.28,9.47,9.47,0,0,0-6.22,2.19,9.25,9.25,0,0,0-3,7.28c0,2.71.89,5.27,2.88,8.29a88.76,88.76,0,0,0,8.5,10.16c2.41,2.63,11.21,10.87,13.62,12.89h.05a22.15,22.15,0,0,0,3.68-12,10.63,10.63,0,0,0-.51-3.54c-.53-1.11-1.92-1.68-4.14-1.68-.92,0-1.11-.21-1.11-.25s.32-.18,1.11-.18a80.6,80.6,0,0,1,8.64.51c1.11.14,1.26.76,1.26,1.4a23.09,23.09,0,0,1-2.37,9.21,37.29,37.29,0,0,1-4.75,7.76s0,0,0,.05c4.73,4,7.76,6.54,9.8,7.71l.15.09c2.31,1.37,4.7,2.79,8.72,2.79.42,0,.83,0,.83.11s-.07.18-1,.18c-2.45.07-4.49.07-6.12.07a20.13,20.13,0,0,1-7.21-.89c-2.49-.87-5.2-2.54-9-5.58h0l-.1.1a23.76,23.76,0,0,1-17.73,7.31" transform="translate(-142.02 -244.1)"/><path class="cls-5" d="M207.89,291.91c-8.1,8.4-22.91,9.47-29.46-.15-7-10.29,1-21.35,6.42-23.88l-1.19-.6c-5.61,3.31-10.87,8.93-10.87,17.35,0,6.27,4.9,15.92,17.5,15.92a23.87,23.87,0,0,0,17.85-7.42l-.25-1.22" transform="translate(-142.02 -244.1)"/><path class="cls-5" d="M204.54,255.19h0c.15,0,.29-.44.51-1.73.36-2.45.64-5.33.93-6.41.11-.44.22-.84.1-1a13,13,0,0,1-2.2,1.41c1.35,2.78.93,5.53.66,7.76" transform="translate(-142.02 -244.1)"/><path class="cls-5" d="M188.83,246.78c-7.14,3.89-7.75,13.2-2.22,20.29,7,9,16.19,17.71,25,25,9.83,8.13,13.76,7.26,19.88,7.24v0c0-.14-.36-.14-.86-.14-4.11,0-6.55-1.51-8.86-2.88-2-1.15-5-3.67-9.79-7.71h-1.37l-.5-1.29c-2.31-1.95-11.16-10.23-13.61-12.89-7.49-8.14-11.38-12.82-11.38-18.43,0-6.77,4.83-9.43,9.15-9.43,4.53,0,9.07,1.87,9.79,4.6a8.12,8.12,0,0,1,.29,2.74c0,1.08,0,1.29.14,1.3.27-2.26.69-5-.66-7.77-1.07-.51-8.44-4.24-15-.64" transform="translate(-142.02 -244.1)"/><path class="cls-5" d="M216.22,271.87c-1.53-1-3.11-2.07-8.15-2h0c0,.08.22.29,1.15.29,1.23,0,3.39.15,4.11,1.66a10.72,10.72,0,0,1,.5,3.53,22,22,0,0,1-3.67,11.95l.5,1.29c4.93-6.3,6.35-14.43,5.56-16.72" transform="translate(-142.02 -244.1)"/><path class="cls-5" d="M216.22,271.87c.79,2.29-.63,10.42-5.56,16.72H212c3.17-3.88,7.13-11.16,7.13-17a1.46,1.46,0,0,0-.3-1c-.77.44-2.64,1.27-2.64,1.27" transform="translate(-142.02 -244.1)"/><path class="cls-5" d="M217.86,270.16a80.88,80.88,0,0,0-8.64-.5c-.93,0-1.15.07-1.15.21,5-.07,6.62,1,8.15,2,0,0,1.87-.83,2.64-1.27a1.53,1.53,0,0,0-1-.44" transform="translate(-142.02 -244.1)"/><path class="cls-5" d="M178.43,291.76c6.55,9.62,21.36,8.55,29.46.15l-1.55-.22c-2.45,2.52-6.77,4.9-13.46,4.9-8.07,0-14.19-6.34-14.19-15.34,0-5.76,2.31-9.65,6.05-12.1l.11-1.27c-5.43,2.53-13.43,13.59-6.42,23.88" transform="translate(-142.02 -244.1)"/><path class="cls-5" d="M211.66,292.1c-8.86-7.32-18-16-25-25-5.53-7.09-4.92-16.4,2.22-20.29,6.61-3.6,14,.13,15,.64a13,13,0,0,0,2.2-1.41.21.21,0,0,0-.17-.11c-1.94-.29-5.62-1.8-10.15-1.8-9.65,0-15.48,7.56-15.48,13.25a15.87,15.87,0,0,0,3.38,9.93l1.19.6-.11,1.27a119.7,119.7,0,0,0,8.64,10.16c1.87,2,8.93,9,13,12.38l1.55.22.25,1.22c7.92,6.26,10.8,6.48,16.27,6.48,1.66,0,3.68,0,6.12-.07.62,0,1-.07,1-.2-6.12,0-10,.89-19.88-7.24" transform="translate(-142.02 -244.1)"/><path class="cls-5" d="M230.68,299.18c-4.11,0-6.55-1.51-8.86-2.88-2-1.15-5-3.67-9.79-7.71h-1.37l-.5-1.29c-2.31-1.95-11.16-10.23-13.61-12.89-6.09-6.62-9.8-11-11-15.36l-2.06,2.06a17.67,17.67,0,0,0,3.09,5.95c7,9,16.19,17.72,25,25,9.83,8.13,13.76,7.26,19.88,7.24v0c0-.14-.36-.14-.86-.14" transform="translate(-142.02 -244.1)"/><path class="cls-5" d="M216.22,271.87c.79,2.29-.63,10.42-5.56,16.72H212c3.17-3.88,7.13-11.16,7.13-17a1.46,1.46,0,0,0-.3-1c-.77.44-2.64,1.27-2.64,1.27" transform="translate(-142.02 -244.1)"/><path class="cls-5" d="M211.66,292.1a180,180,0,0,1-22-21.27l-2,2c2.1,2.5,4.52,5.13,5.73,6.44,1.87,2,8.93,9,13,12.38l1.55.22.25,1.22c7.92,6.26,10.8,6.48,16.27,6.48,1.66,0,3.68,0,6.12-.07.62,0,1-.07,1-.2-6.12,0-10,.89-19.88-7.24" transform="translate(-142.02 -244.1)"/><path class="cls-5" d="M203.88,247.42c1.35,2.78.93,5.53.66,7.77h0c.15,0,.29-.44.51-1.73.36-2.45.64-5.33.93-6.41.11-.44.22-.84.1-1a.21.21,0,0,0-.17-.11c-1.94-.29-5.62-1.8-10.15-1.8a17,17,0,0,0-4.25.52v1.08c5.79-1.58,11.44,1.28,12.37,1.72" transform="translate(-142.02 -244.1)"/><path class="cls-5" d="M217.86,270.16a80.88,80.88,0,0,0-8.64-.5c-.93,0-1.15.07-1.15.21,5-.07,6.62,1,8.15,2,0,0,1.87-.83,2.64-1.27a1.53,1.53,0,0,0-1-.44" transform="translate(-142.02 -244.1)"/><path class="cls-5" d="M203.88,247.42a21.16,21.16,0,0,0-7.65-2.15v1.38c3.83.44,7.26,2.15,7.88,4.5a8.12,8.12,0,0,1,.29,2.74c0,1.08,0,1.3.14,1.3.27-2.26.69-5-.66-7.77" transform="translate(-142.02 -244.1)"/><path class="cls-5" d="M216.22,271.87c-1.53-1-3.11-2.07-8.15-2h0c0,.08.22.29,1.15.29,1.23,0,3.39.15,4.11,1.66a10.72,10.72,0,0,1,.5,3.53,22,22,0,0,1-3.67,11.95l.5,1.29c4.93-6.3,6.35-14.43,5.56-16.72" transform="translate(-142.02 -244.1)"/><path class="cls-5" d="M211.66,292.1a197.11,197.11,0,0,1-16.25-15l-2.1,2.1.07.08c1.87,2,8.93,9,13,12.38l1.55.22.25,1.22c7.92,6.26,10.8,6.48,16.27,6.48,1.66,0,3.68,0,6.12-.07.62,0,1-.07,1-.2-6.12,0-10,.89-19.88-7.24" transform="translate(-142.02 -244.1)"/><path class="cls-5" d="M208.14,293.13l-.25-1.22a21.8,21.8,0,0,1-5.06,3.87l.95,1a25.09,25.09,0,0,0,4.36-3.61" transform="translate(-142.02 -244.1)"/><path class="cls-5" d="M184.85,267.88l-1.19-.6a26.56,26.56,0,0,0-4.57,3.38l1.06,1a14.77,14.77,0,0,1,4.7-3.83" transform="translate(-142.02 -244.1)"/><path class="cls-5" d="M202.83,295.78c-8.22,4.56-19.06,3.83-24.4-4-5.08-7.46-2.28-15.32,1.72-20.05l-1.06-1a18.61,18.61,0,0,0-6.3,14c0,6.27,4.9,15.92,17.5,15.92a24.42,24.42,0,0,0,13.49-3.81l-.95-1" transform="translate(-142.02 -244.1)"/><path class="cls-5" d="M184.74,269.15l.11-1.27a15.82,15.82,0,0,0-5.64,5L180.3,274a12.72,12.72,0,0,1,4.44-4.85" transform="translate(-142.02 -244.1)"/><path class="cls-5" d="M192.88,296.59c-8.07,0-14.19-6.34-14.19-15.34A15.44,15.44,0,0,1,180.3,274l-1.09-1.09c-3.46,4.79-5.45,12-.78,18.85,4.5,6.61,12.91,8.18,20.35,5.78v-1.66a23.72,23.72,0,0,1-5.9.71" transform="translate(-142.02 -244.1)"/><path class="cls-5" d="M207.89,291.91l-1.55-.22a15.91,15.91,0,0,1-7.56,4.19v1.66a22.15,22.15,0,0,0,9.11-5.64" transform="translate(-142.02 -244.1)"/><path class="cls-5" d="M211.66,292.1c-8.86-7.32-18-16-25-25a20.24,20.24,0,0,1-1.33-1.94l-2.23,1.26c.19.29.4.59.61.89l1.19.6-.11,1.27a119.7,119.7,0,0,0,8.64,10.16c1.87,2,8.93,9,13,12.38l1.55.22.25,1.22c7.92,6.26,10.8,6.48,16.27,6.48,1.66,0,3.68,0,6.12-.07.62,0,1-.07,1-.2-6.12,0-10,.89-19.88-7.24" transform="translate(-142.02 -244.1)"/><path class="cls-5" d="M230.68,299.18c-4.11,0-6.55-1.51-8.86-2.88-2-1.15-5-3.67-9.79-7.71h-1.37l-.5-1.29c-2.31-1.95-11.16-10.23-13.61-12.89-4-4.31-6.92-7.64-8.82-10.66l-2.45,1.38a20.24,20.24,0,0,0,1.33,1.94c7,9,16.19,17.71,25,25,9.83,8.13,13.76,7.26,19.88,7.24v0c0-.14-.36-.14-.86-.14" transform="translate(-142.02 -244.1)"/><path class="cls-5" d="M252.21,299.5c-2.68,0-5.73-.12-7.2-.18l-.87,0-1.21,0c-1.61.07-4.31.17-5.84.17-1.07,0-1.12-.21-1.12-.25s.14-.18.54-.18a11.36,11.36,0,0,0,2.17-.14c1.52-.31,1.83-2.71,2.1-4.64.36-3,.34-8.59.34-15.63V266c0-11.23,0-13.25-.13-15.56s-.44-4.34-2.9-4.71a13.41,13.41,0,0,0-2-.14c-.74,0-.89-.1-.89-.18s.29-.26,1.11-.26c2.43,0,5.47.13,6.93.19l.92,0,1.15,0c1.53-.07,4.09-.18,5.62-.18.81,0,1.12.16,1.12.26s-.26.18-.76.18a9.21,9.21,0,0,0-1.88.14c-1.9.4-2.3,2.5-2.42,4.71s-.16,4.33-.16,15.56v12.67c0,7,0,12.6.37,15.63.22,2.09.64,4.34,2.85,4.64a25.29,25.29,0,0,0,3.11.14c.45,0,.61.09.61.18s-.07.25-1.54.25m30,0c-6.36,0-8-.86-11.28-3.47-4.42-3.46-17.64-17.72-23.61-24.84l-.27-.35.27-.26c1.47-1.43,6.33-6.49,10.61-10.95,2.22-2.32,4.32-4.51,5.8-6,4.67-4.82,5.05-5.9,5.05-6.65,0-1-.6-1.41-1.9-1.41-.36,0-.62-.07-.62-.18s.22-.25,1-.25c1,0,1.58.05,2.2.1a25.33,25.33,0,0,0,2.62.12c1.3,0,3.32-.08,4.94-.14,1.19,0,2.21-.08,2.69-.08.88,0,1.19.15,1.19.25s-.24.18-.75.18a7.31,7.31,0,0,0-3.26.58c-1.52.65-3.59,2.37-7.93,6.56-6.22,6-14.49,14.2-16.42,16.35a0,0,0,0,0,0,.05c4.38,4.79,16.86,18.22,20.31,21.46,6,5.67,8.46,7.71,11.9,8.36a23.27,23.27,0,0,0,3.1.14c.57,0,.68.16.68.2s0,.27-1,.27h-5.33" transform="translate(-142.02 -244.1)"/><path class="cls-5" d="M271.14,248.06c1.06-.53,2.79-1.35,4.17-1.92a12.91,12.91,0,0,1,5.64-.77c0-.13-.4-.26-1.22-.26-1.15,0-5.4.21-7.63.21-2.45,0-2.73-.21-4.82-.21-.75,0-1,.13-1.08.26,1.82,0,2.36,0,3.36.77a7.69,7.69,0,0,1,1.58,1.92" transform="translate(-142.02 -244.1)"/><path class="cls-5" d="M244.14,248.56a13,13,0,0,1,2.82-2.28c1.55-.92,2.5-.91,5.1-.91,0-.13-.4-.26-1.15-.26-2.16,0-6.41.21-6.77.21s-4.61-.21-7.85-.21c-.81,0-1.12.13-1.15.26,2.77,0,4.14,0,5.89.89a11.29,11.29,0,0,1,3.11,2.3" transform="translate(-142.02 -244.1)"/><path class="cls-5" d="M247.21,298.48a11.49,11.49,0,0,1-3.07-2.35,13.54,13.54,0,0,1-2.91,2.3,8.86,8.86,0,0,1-5.3.82c0,.07.08.29,1.16.29,2.16,0,6.69-.22,7-.22s4.54.22,8.07.22c1.51,0,1.58-.22,1.58-.29-2.57.13-4.93.09-6.58-.77" transform="translate(-142.02 -244.1)"/><path class="cls-5" d="M241,246.26c-1.75-.85-3.12-.89-5.89-.89v0c0,.15.29.22.94.22a13.25,13.25,0,0,1,2,.14c2.38.36,2.74,2.24,2.88,4.68s.15,4.32.15,15.56v12.67c0,6.91,0,12.6-.36,15.62-.29,2.09-.65,4.32-2.09,4.61a11.2,11.2,0,0,1-2.16.14c-.5,0-.58.15-.58.22a8.86,8.86,0,0,0,5.3-.82,13.54,13.54,0,0,0,2.91-2.3V248.56a11.29,11.29,0,0,0-3.11-2.3" transform="translate(-142.02 -244.1)"/><path class="cls-5" d="M253.14,299a25,25,0,0,1-3.09-.14c-2.16-.29-2.6-2.52-2.81-4.61-.36-3-.36-8.71-.36-15.62V266c0-11.24,0-13.25.14-15.56.15-2.52.65-4.32,2.38-4.68a9.07,9.07,0,0,1,1.87-.14c.43,0,.79-.07.79-.22v0c-2.6,0-3.55,0-5.1.91a13,13,0,0,0-2.82,2.28v47.57a11.33,11.33,0,0,0,3.07,2.35c1.65.86,4,.9,6.58.77,0-.07-.07-.22-.65-.22" transform="translate(-142.02 -244.1)"/><path class="cls-5" d="M287.87,299a23.5,23.5,0,0,1-3.1-.14c-3.45-.65-6-2.81-11.88-8.35-3.38-3.17-15.76-16.49-20.3-21.46l-2.18.24a2.18,2.18,0,0,0-.19,1c5.74,6.26,20.53,22.1,23,24.13,6.25,5.12,9.39,4.82,15.37,4.82,0-.07-.14-.22-.72-.22" transform="translate(-142.02 -244.1)"/><path class="cls-5" d="M273.22,294.43c-2.47-2-17.26-17.87-23-24.13-.15,0-3.25.57-3.25.57l.29.37c6.34,7.56,19.3,21.46,23.62,24.84,3.38,2.67,5,3.46,11.3,3.46h5.33c.94,0,1.08-.22,1.08-.29-6,0-9.12.3-15.37-4.82" transform="translate(-142.02 -244.1)"/><path class="cls-5" d="M269,252.74c4.32-4.18,6.4-5.91,7.92-6.55a7.09,7.09,0,0,1,3.24-.58c.57,0,.79-.07.79-.22v0a12.91,12.91,0,0,0-5.64.77c-1.38.57-3.11,1.39-4.17,1.92l-20.73,21.26,2.18-.24c1.87-2.09,10.08-10.22,16.42-16.34" transform="translate(-142.02 -244.1)"/><path class="cls-5" d="M250.42,269.32l20.72-21.26a7.69,7.69,0,0,0-1.58-1.92c-1-.77-1.54-.77-3.36-.77v0c0,.15.29.22.65.22,1.36,0,1.87.5,1.87,1.37s-.72,2.16-5,6.62-14.19,14.83-16.42,17l-.24.28s3-.56,3.2-.57a2.09,2.09,0,0,1,.2-1" transform="translate(-142.02 -244.1)"/><path class="cls-5" d="M244.14,248.56v46.31h3.17c0-.2-.05-.39-.07-.59-.36-3-.36-8.71-.36-15.62V266c0-11.24,0-13.25.14-15.56a14.13,14.13,0,0,1,.22-1.87h-3.1" transform="translate(-142.02 -244.1)"/><path class="cls-5" d="M244.14,248.75H240.8a15.87,15.87,0,0,1,.17,1.68c.15,2.31.15,4.32.15,15.56v12.67c0,6.91,0,12.6-.36,15.62,0,.12,0,.23,0,.34h3.43V248.75" transform="translate(-142.02 -244.1)"/><path class="cls-5" d="M253.14,299a25,25,0,0,1-3.09-.14c-2-.26-2.5-2.13-2.75-4h-3.16v1.28a11.33,11.33,0,0,0,3.07,2.35c1.65.86,4,.9,6.58.77,0-.07-.07-.22-.65-.22" transform="translate(-142.02 -244.1)"/><path class="cls-5" d="M252.06,245.37c-2.28,0-3.29,0-4.54.61l.55.56a2.32,2.32,0,0,1,1.33-.79,9.07,9.07,0,0,1,1.87-.14c.43,0,.79-.07.79-.22v0" transform="translate(-142.02 -244.1)"/><path class="cls-5" d="M244.14,248.56a13,13,0,0,1,2.82-2.28c1.55-.92,2.5-.91,5.1-.91,0-.13-.4-.26-1.15-.26-2.16,0-6.41.21-6.77.21s-4.61-.21-7.85-.21c-.81,0-1.12.13-1.15.26,2.77,0,4.14,0,5.89.89a11.29,11.29,0,0,1,3.11,2.3" transform="translate(-142.02 -244.1)"/><path class="cls-5" d="M271.14,248.06c1.06-.53,2.79-1.35,4.17-1.92a12.91,12.91,0,0,1,5.64-.77c0-.13-.4-.26-1.22-.26-1.15,0-5.4.21-7.63.21-2.45,0-2.73-.21-4.82-.21-.75,0-1,.13-1.08.26,1.82,0,2.36,0,3.36.77a7.69,7.69,0,0,1,1.58,1.92" transform="translate(-142.02 -244.1)"/><path class="cls-5" d="M252.59,269.08l-2.18.24a2.18,2.18,0,0,0-.19,1c2.93,3.2,8.22,8.89,13,14l1.8-1.8c-4.61-4.87-9.84-10.52-12.46-13.39" transform="translate(-142.02 -244.1)"/><path class="cls-5" d="M287.87,299a23.5,23.5,0,0,1-3.1-.14c-3.45-.65-6-2.81-11.88-8.35-1.43-1.34-4.47-4.5-7.84-8.07l-1.8,1.8c4.6,4.87,8.76,9.17,10,10.16,6.25,5.12,9.39,4.82,15.37,4.82,0-.07-.14-.22-.72-.22" transform="translate(-142.02 -244.1)"/><path class="cls-5" d="M273.22,294.43c-.52-.42-1.56-1.44-3-2.85l-2.1,2.11c1.08,1,2,1.84,2.71,2.39,3.38,2.67,5,3.46,11.3,3.46h5.33c.94,0,1.08-.22,1.08-.29-6,0-9.12.3-15.37-4.82" transform="translate(-142.02 -244.1)"/><path class="cls-5" d="M250.42,269.32l2.17-.24,1.15-1.23h-1.9l-1.43,1.47" transform="translate(-142.02 -244.1)"/><path class="cls-5" d="M281,245.37a13,13,0,0,0-5.63.77l.59.59a7.34,7.34,0,0,1,1-.54,7.09,7.09,0,0,1,3.24-.58c.57,0,.79-.07.79-.22v0" transform="translate(-142.02 -244.1)"/><path class="cls-5" d="M247.21,298.48a11.49,11.49,0,0,1-3.07-2.35,13.54,13.54,0,0,1-2.91,2.3,8.86,8.86,0,0,1-5.3.82c0,.07.08.29,1.16.29,2.16,0,6.69-.22,7-.22s4.54.22,8.07.22c1.51,0,1.58-.22,1.58-.29-2.57.13-4.93.09-6.58-.77" transform="translate(-142.02 -244.1)"/><path class="cls-5" d="M244.14,248.56a11.29,11.29,0,0,0-3.11-2.3c-1.75-.85-3.12-.89-5.89-.89v0c0,.15.29.22.94.22a13.25,13.25,0,0,1,2,.14c1.79.28,2.44,1.4,2.71,3h3.34v-.18" transform="translate(-142.02 -244.1)"/><path class="cls-5" d="M250.22,270.3c-.15,0-3.25.57-3.25.57l.29.37c1.07,1.28,2.33,2.73,3.7,4.29l2.12-2.12-2.86-3.11" transform="translate(-142.02 -244.1)"/><path class="cls-5" d="M271.14,248.06a7.69,7.69,0,0,0-1.58-1.92c-1-.77-1.54-.77-3.36-.77v0c0,.15.29.22.65.22,1.36,0,1.87.5,1.87,1.37a2.39,2.39,0,0,1-.38,1.17h2.71l.09-.09" transform="translate(-142.02 -244.1)"/><path class="cls-5" d="M271.14,248.06l-20.73,21.26,2.18-.24c1.87-2.09,10.08-10.22,16.42-16.34,1.56-1.51,2.82-2.7,3.88-3.63l-1.28-1.28-.47.23" transform="translate(-142.02 -244.1)"/><path class="cls-5" d="M250.22,270.3c-.15,0-3.25.57-3.25.57l.29.37c6.07,7.25,18.23,20.31,23,24.37l2-2c-4.06-3.89-16.84-17.59-22.08-23.3" transform="translate(-142.02 -244.1)"/><path class="cls-5" d="M272.89,290.54c-3.38-3.17-15.76-16.49-20.3-21.46l-2.18.24a2.18,2.18,0,0,0-.19,1c5.24,5.71,18,19.41,22.08,23.3l1.87-1.87-1.28-1.19" transform="translate(-142.02 -244.1)"/><path class="cls-5" d="M253.14,299a25,25,0,0,1-3.09-.14c-2.16-.29-2.6-2.52-2.81-4.61-.36-3-.36-8.71-.36-15.62V266c0-11.24,0-13.25.14-15.56.15-2.52.65-4.32,2.38-4.68a9.07,9.07,0,0,1,1.87-.14c.43,0,.79-.07.79-.22v0c-2.6,0-3.55,0-5.1.91a13,13,0,0,0-2.82,2.28v47.57a11.33,11.33,0,0,0,3.07,2.35c1.65.86,4,.9,6.58.77,0-.07-.07-.22-.65-.22" transform="translate(-142.02 -244.1)"/><path class="cls-5" d="M269.56,246.14c-1-.77-1.54-.77-3.36-.77v0c0,.15.29.22.65.22,1.36,0,1.87.5,1.87,1.37s-.72,2.16-5,6.62c-3.5,3.61-10.41,10.87-14.21,14.77l.95.95,20.72-21.26a7.69,7.69,0,0,0-1.58-1.92" transform="translate(-142.02 -244.1)"/><path class="cls-5" d="M241,246.26c-1.75-.85-3.12-.89-5.89-.89v0c0,.15.29.22.94.22a13.25,13.25,0,0,1,2,.14c2.38.36,2.74,2.24,2.88,4.68s.15,4.32.15,15.56v12.67c0,6.91,0,12.6-.36,15.62-.29,2.09-.65,4.32-2.09,4.61a11.2,11.2,0,0,1-2.16.14c-.5,0-.58.15-.58.22a8.86,8.86,0,0,0,5.3-.82,13.54,13.54,0,0,0,2.91-2.3V248.56a11.29,11.29,0,0,0-3.11-2.3" transform="translate(-142.02 -244.1)"/><path class="cls-6" d="M142.23,317.26a.24.24,0,0,1-.16,0,.08.08,0,0,1,0-.05c0-.07.13-.27.95-.68a21.89,21.89,0,0,0,3-2.09,13,13,0,0,0,5.36-8.79c.79-4.05.81-9.79.81-18.82V266c0-11.23,0-13.25-.13-15.56-.12-2.11-.59-4.32-3.19-4.71a13.1,13.1,0,0,0-2-.15c-.75,0-.9-.09-.9-.18s.29-.25,1.12-.25c2.43,0,5.63.13,7.16.18l1,0,1.21-.05c1.61-.06,4.32-.17,5.85-.17.81,0,1.12.16,1.12.25s-.26.18-.76.18a8.61,8.61,0,0,0-1.88.15c-1.9.39-2.3,2.5-2.42,4.71s-.16,4.33-.16,15.56v17.28c0,11.73,0,16.12-2.14,21.22a22,22,0,0,1-5.36,7.14,34.22,34.22,0,0,1-8,5.52,1.1,1.1,0,0,1-.45.11" transform="translate(-142.02 -244.1)"/><path class="cls-7" d="M154,304.43l-.05.15H156l.06-.15H154" transform="translate(-142.02 -244.1)"/><path class="cls-7" d="M162.28,245.11c-2.16,0-6.7.21-7.06.21s-4.89-.21-8.13-.21c-.82,0-1.12.13-1.15.26,2.68,0,4.22.13,5.95,1a13.43,13.43,0,0,1,3.33,2.22,14.71,14.71,0,0,1,3-2.28c1.52-.91,2.68-.91,5.22-.91,0-.13-.4-.26-1.15-.26" transform="translate(-142.02 -244.1)"/><path class="cls-8" d="M153.93,304.51h-2.37c-.72,4.75-2.27,7.36-5.55,9.86a23.67,23.67,0,0,1-3,2.09c-.72.36-1.08.65-.93.79,5.52-2.83,9.84-6.77,11.88-12.74" transform="translate(-142.02 -244.1)"/><path class="cls-9" d="M151.89,246.34c-1.73-.84-3.27-1-5.95-1v0c0,.15.29.22.94.22a13.41,13.41,0,0,1,2,.14,3.33,3.33,0,0,1,2.9,2.81,9.69,9.69,0,0,1,.26,1.87c.15,2.31.15,4.32.15,15.56v20.8c0,8.22,0,13.73-.64,17.72h2.37a25.83,25.83,0,0,0,1.29-8.43V248.56a13.63,13.63,0,0,0-3.33-2.22" transform="translate(-142.02 -244.1)"/><path class="cls-10" d="M158.25,266c0-11.24,0-13.25.14-15.56a16.15,16.15,0,0,1,.21-1.87c.3-1.51.91-2.54,2.17-2.81a9.07,9.07,0,0,1,1.87-.14c.43,0,.79-.07.79-.22v0c-2.54,0-3.7,0-5.22.91a14.71,14.71,0,0,0-3,2.28v47.52a25.83,25.83,0,0,1-1.29,8.43h2.16c2.16-5.12,2.16-9.58,2.16-21.24V266" transform="translate(-142.02 -244.1)"/><path class="cls-11" d="M142.05,317.25a.73.73,0,0,0,.64-.07c5.62-2.74,11.31-7.78,13.4-12.67h-2.16c-2,6-6.36,9.91-11.88,12.74" transform="translate(-142.02 -244.1)"/><path class="cls-9" d="M155.22,248.56a13.63,13.63,0,0,0-3.33-2.22c-1.73-.84-3.27-1-5.95-1v0c0,.15.29.22.94.22a13.41,13.41,0,0,1,2,.14,3.33,3.33,0,0,1,2.9,2.81,8.7,8.7,0,0,1,.21,1.21h3.22v-1.21" transform="translate(-142.02 -244.1)"/><path class="cls-12" d="M155.22,249.77H152c0,.22,0,.44.05.66.15,2.31.15,4.32.15,15.56v20.8c0,3.4,0,6.33-.06,8.88h3.08v-45.9" transform="translate(-142.02 -244.1)"/><path class="cls-13" d="M158.21,246.28a14.71,14.71,0,0,0-3,2.28v47.52a25.83,25.83,0,0,1-1.29,8.43h2.16c2.16-5.12,2.16-9.58,2.16-21.24V266c0-11.24,0-13.25.14-15.56a16.15,16.15,0,0,1,.21-1.87,4.48,4.48,0,0,1,.82-2l-.6-.61-.62.33" transform="translate(-142.02 -244.1)"/><path class="cls-14" d="M160.77,245.75a9.07,9.07,0,0,1,1.87-.14c.43,0,.79-.07.79-.22v0a12.63,12.63,0,0,0-4,.36l.44.44a2.31,2.31,0,0,1,.94-.42" transform="translate(-142.02 -244.1)"/><path class="cls-15" d="M162.28,245.11c-2.16,0-6.7.21-7.06.21s-4.89-.21-8.13-.21c-.82,0-1.12.13-1.15.26,2.68,0,4.22.13,5.95,1a13.43,13.43,0,0,1,3.33,2.22,14.71,14.71,0,0,1,3-2.28c1.52-.91,2.68-.91,5.22-.91,0-.13-.4-.26-1.15-.26" transform="translate(-142.02 -244.1)"/><path class="cls-16" d="M155.22,248.56a13.63,13.63,0,0,0-3.33-2.22c-1.73-.84-3.27-1-5.95-1v0c0,.15.29.22.94.22a13.41,13.41,0,0,1,2,.14,3.33,3.33,0,0,1,2.9,2.81c0,.06,0,.13.05.19h3.38v-.19" transform="translate(-142.02 -244.1)"/><path class="cls-17" d="M153.93,304.51h-2.37c-.72,4.75-2.27,7.36-5.55,9.86a23.67,23.67,0,0,1-3,2.09c-.72.36-1.08.65-.93.79,5.52-2.83,9.84-6.77,11.88-12.74" transform="translate(-142.02 -244.1)"/><path class="cls-18" d="M142.05,317.25a.73.73,0,0,0,.64-.07c5.62-2.74,11.31-7.78,13.4-12.67h-2.16c-2,6-6.36,9.91-11.88,12.74" transform="translate(-142.02 -244.1)"/><path class="cls-19" d="M155.22,291.46v4.62a25.83,25.83,0,0,1-1.29,8.43h2.16c1.56-3.7,2-7.06,2.11-13.05h-3" transform="translate(-142.02 -244.1)"/><path class="cls-20" d="M153.93,304.51a25.83,25.83,0,0,0,1.29-8.43v-.41h-3.08a67.58,67.58,0,0,1-.58,8.84h2.37" transform="translate(-142.02 -244.1)"/><path class="cls-21" d="M151.89,246.34c-1.73-.84-3.27-1-5.95-1v0c0,.15.29.22.94.22a13.41,13.41,0,0,1,2,.14,3.33,3.33,0,0,1,2.9,2.81,9.69,9.69,0,0,1,.26,1.87c.15,2.31.15,4.32.15,15.56v20.8c0,8.22,0,13.73-.64,17.72h2.37a25.83,25.83,0,0,0,1.29-8.43V248.56a13.63,13.63,0,0,0-3.33-2.22" transform="translate(-142.02 -244.1)"/><path class="cls-22" d="M158.25,266c0-11.24,0-13.25.14-15.56a16.15,16.15,0,0,1,.21-1.87c.3-1.51.91-2.54,2.17-2.81a9.07,9.07,0,0,1,1.87-.14c.43,0,.79-.07.79-.22v0c-2.54,0-3.7,0-5.22.91a14.71,14.71,0,0,0-3,2.28v47.52a25.83,25.83,0,0,1-1.29,8.43h2.16c2.16-5.12,2.16-9.58,2.16-21.24V266" transform="translate(-142.02 -244.1)"/><path class="cls-6" d="M184.74,269.12h0c-4,2.63-6.06,6.71-6.06,12.13a16,16,0,0,0,4.08,11.07,13.73,13.73,0,0,0,10.14,4.3,22.18,22.18,0,0,0,8.34-1.5,15.19,15.19,0,0,0,5.15-3.41s0,0,0,0v0c-4.05-3.4-11.08-10.35-13-12.38a114.42,114.42,0,0,1-8.64-10.15h0m5.55,31.39c-7.07,0-11.21-3-13.45-5.6a16.11,16.11,0,0,1-4-10.28,18,18,0,0,1,3.32-10.57,23.93,23.93,0,0,1,7.53-6.75l0,0a0,0,0,0,0,0,0,15.86,15.86,0,0,1-3.38-9.91,12.81,12.81,0,0,1,4.11-8.74,16.09,16.09,0,0,1,11.34-4.48,29.78,29.78,0,0,1,7.91,1.28c.88.23,1.64.43,2.23.52a.24.24,0,0,1,.15.1c.11.17,0,.54-.08.94l0,.07c-.19.7-.38,2.18-.58,3.74-.11.89-.23,1.8-.36,2.67-.07.42-.28,1.7-.47,1.7s-.11-.29-.11-1.26a8.08,8.08,0,0,0-.29-2.75c-.34-1.3-1.58-2.49-3.48-3.35a15.67,15.67,0,0,0-6.34-1.28,9.47,9.47,0,0,0-6.22,2.19,9.25,9.25,0,0,0-3,7.28c0,2.71.89,5.27,2.88,8.29a88.76,88.76,0,0,0,8.5,10.16c2.41,2.63,11.21,10.87,13.62,12.89h.05a22.15,22.15,0,0,0,3.68-12,10.63,10.63,0,0,0-.51-3.54c-.53-1.11-1.92-1.68-4.14-1.68-.92,0-1.11-.21-1.11-.25s.32-.18,1.11-.18a80.6,80.6,0,0,1,8.64.51c1.11.14,1.26.76,1.26,1.4a23.09,23.09,0,0,1-2.37,9.21,37.29,37.29,0,0,1-4.75,7.76s0,0,0,.05c4.73,4,7.76,6.54,9.8,7.71l.15.09c2.31,1.37,4.7,2.79,8.72,2.79.42,0,.83,0,.83.11s-.07.18-1,.18c-2.45.07-4.49.07-6.12.07a20.13,20.13,0,0,1-7.21-.89c-2.49-.87-5.2-2.54-9-5.58h0l-.1.1a23.76,23.76,0,0,1-17.73,7.31" transform="translate(-142.02 -244.1)"/><path class="cls-23" d="M207.89,291.91c-8.1,8.4-22.91,9.47-29.46-.15-7-10.29,1-21.35,6.42-23.88l-1.19-.6c-5.61,3.31-10.87,8.93-10.87,17.35,0,6.27,4.9,15.92,17.5,15.92a23.87,23.87,0,0,0,17.85-7.42l-.25-1.22" transform="translate(-142.02 -244.1)"/><path class="cls-7" d="M204.54,255.19h0c.15,0,.29-.44.51-1.73.36-2.45.64-5.33.93-6.41.11-.44.22-.84.1-1a13,13,0,0,1-2.2,1.41c1.35,2.78.93,5.53.66,7.76" transform="translate(-142.02 -244.1)"/><path class="cls-24" d="M188.83,246.78c-7.14,3.89-7.75,13.2-2.22,20.29,7,9,16.19,17.71,25,25,9.83,8.13,13.76,7.26,19.88,7.24v0c0-.14-.36-.14-.86-.14-4.11,0-6.55-1.51-8.86-2.88-2-1.15-5-3.67-9.79-7.71h-1.37l-.5-1.29c-2.31-1.95-11.16-10.23-13.61-12.89-7.49-8.14-11.38-12.82-11.38-18.43,0-6.77,4.83-9.43,9.15-9.43,4.53,0,9.07,1.87,9.79,4.6a8.12,8.12,0,0,1,.29,2.74c0,1.08,0,1.29.14,1.3.27-2.26.69-5-.66-7.77-1.07-.51-8.44-4.24-15-.64" transform="translate(-142.02 -244.1)"/><path class="cls-25" d="M216.22,271.87c-1.53-1-3.11-2.07-8.15-2h0c0,.08.22.29,1.15.29,1.23,0,3.39.15,4.11,1.66a10.72,10.72,0,0,1,.5,3.53,22,22,0,0,1-3.67,11.95l.5,1.29c4.93-6.3,6.35-14.43,5.56-16.72" transform="translate(-142.02 -244.1)"/><path class="cls-26" d="M216.22,271.87c.79,2.29-.63,10.42-5.56,16.72H212c3.17-3.88,7.13-11.16,7.13-17a1.46,1.46,0,0,0-.3-1c-.77.44-2.64,1.27-2.64,1.27" transform="translate(-142.02 -244.1)"/><path class="cls-7" d="M217.86,270.16a80.88,80.88,0,0,0-8.64-.5c-.93,0-1.15.07-1.15.21,5-.07,6.62,1,8.15,2,0,0,1.87-.83,2.64-1.27a1.53,1.53,0,0,0-1-.44" transform="translate(-142.02 -244.1)"/><path class="cls-27" d="M178.43,291.76c6.55,9.62,21.36,8.55,29.46.15l-1.55-.22c-2.45,2.52-6.77,4.9-13.46,4.9-8.07,0-14.19-6.34-14.19-15.34,0-5.76,2.31-9.65,6.05-12.1l.11-1.27c-5.43,2.53-13.43,13.59-6.42,23.88" transform="translate(-142.02 -244.1)"/><path class="cls-28" d="M211.66,292.1c-8.86-7.32-18-16-25-25-5.53-7.09-4.92-16.4,2.22-20.29,6.61-3.6,14,.13,15,.64a13,13,0,0,0,2.2-1.41.21.21,0,0,0-.17-.11c-1.94-.29-5.62-1.8-10.15-1.8-9.65,0-15.48,7.56-15.48,13.25a15.87,15.87,0,0,0,3.38,9.93l1.19.6-.11,1.27a119.7,119.7,0,0,0,8.64,10.16c1.87,2,8.93,9,13,12.38l1.55.22.25,1.22c7.92,6.26,10.8,6.48,16.27,6.48,1.66,0,3.68,0,6.12-.07.62,0,1-.07,1-.2-6.12,0-10,.89-19.88-7.24" transform="translate(-142.02 -244.1)"/><path class="cls-29" d="M230.68,299.18c-4.11,0-6.55-1.51-8.86-2.88-2-1.15-5-3.67-9.79-7.71h-1.37l-.5-1.29c-2.31-1.95-11.16-10.23-13.61-12.89-6.09-6.62-9.8-11-11-15.36l-2.06,2.06a17.67,17.67,0,0,0,3.09,5.95c7,9,16.19,17.72,25,25,9.83,8.13,13.76,7.26,19.88,7.24v0c0-.14-.36-.14-.86-.14" transform="translate(-142.02 -244.1)"/><path class="cls-30" d="M216.22,271.87c.79,2.29-.63,10.42-5.56,16.72H212c3.17-3.88,7.13-11.16,7.13-17a1.46,1.46,0,0,0-.3-1c-.77.44-2.64,1.27-2.64,1.27" transform="translate(-142.02 -244.1)"/><path class="cls-31" d="M211.66,292.1a180,180,0,0,1-22-21.27l-2,2c2.1,2.5,4.52,5.13,5.73,6.44,1.87,2,8.93,9,13,12.38l1.55.22.25,1.22c7.92,6.26,10.8,6.48,16.27,6.48,1.66,0,3.68,0,6.12-.07.62,0,1-.07,1-.2-6.12,0-10,.89-19.88-7.24" transform="translate(-142.02 -244.1)"/><path class="cls-32" d="M203.88,247.42c1.35,2.78.93,5.53.66,7.77h0c.15,0,.29-.44.51-1.73.36-2.45.64-5.33.93-6.41.11-.44.22-.84.1-1a.21.21,0,0,0-.17-.11c-1.94-.29-5.62-1.8-10.15-1.8a17,17,0,0,0-4.25.52v1.08c5.79-1.58,11.44,1.28,12.37,1.72" transform="translate(-142.02 -244.1)"/><path class="cls-33" d="M217.86,270.16a80.88,80.88,0,0,0-8.64-.5c-.93,0-1.15.07-1.15.21,5-.07,6.62,1,8.15,2,0,0,1.87-.83,2.64-1.27a1.53,1.53,0,0,0-1-.44" transform="translate(-142.02 -244.1)"/><path class="cls-34" d="M203.88,247.42a21.16,21.16,0,0,0-7.65-2.15v1.38c3.83.44,7.26,2.15,7.88,4.5a8.12,8.12,0,0,1,.29,2.74c0,1.08,0,1.3.14,1.3.27-2.26.69-5-.66-7.77" transform="translate(-142.02 -244.1)"/><path class="cls-35" d="M216.22,271.87c-1.53-1-3.11-2.07-8.15-2h0c0,.08.22.29,1.15.29,1.23,0,3.39.15,4.11,1.66a10.72,10.72,0,0,1,.5,3.53,22,22,0,0,1-3.67,11.95l.5,1.29c4.93-6.3,6.35-14.43,5.56-16.72" transform="translate(-142.02 -244.1)"/><path class="cls-36" d="M211.66,292.1a197.11,197.11,0,0,1-16.25-15l-2.1,2.1.07.08c1.87,2,8.93,9,13,12.38l1.55.22.25,1.22c7.92,6.26,10.8,6.48,16.27,6.48,1.66,0,3.68,0,6.12-.07.62,0,1-.07,1-.2-6.12,0-10,.89-19.88-7.24" transform="translate(-142.02 -244.1)"/><path class="cls-37" d="M208.14,293.13l-.25-1.22a21.8,21.8,0,0,1-5.06,3.87l.95,1a25.09,25.09,0,0,0,4.36-3.61" transform="translate(-142.02 -244.1)"/><path class="cls-38" d="M184.85,267.88l-1.19-.6a26.56,26.56,0,0,0-4.57,3.38l1.06,1a14.77,14.77,0,0,1,4.7-3.83" transform="translate(-142.02 -244.1)"/><path class="cls-39" d="M202.83,295.78c-8.22,4.56-19.06,3.83-24.4-4-5.08-7.46-2.28-15.32,1.72-20.05l-1.06-1a18.61,18.61,0,0,0-6.3,14c0,6.27,4.9,15.92,17.5,15.92a24.42,24.42,0,0,0,13.49-3.81l-.95-1" transform="translate(-142.02 -244.1)"/><path class="cls-40" d="M184.74,269.15l.11-1.27a15.82,15.82,0,0,0-5.64,5L180.3,274a12.72,12.72,0,0,1,4.44-4.85" transform="translate(-142.02 -244.1)"/><path class="cls-41" d="M192.88,296.59c-8.07,0-14.19-6.34-14.19-15.34A15.44,15.44,0,0,1,180.3,274l-1.09-1.09c-3.46,4.79-5.45,12-.78,18.85,4.5,6.61,12.91,8.18,20.35,5.78v-1.66a23.72,23.72,0,0,1-5.9.71" transform="translate(-142.02 -244.1)"/><path class="cls-42" d="M207.89,291.91l-1.55-.22a15.91,15.91,0,0,1-7.56,4.19v1.66a22.15,22.15,0,0,0,9.11-5.64" transform="translate(-142.02 -244.1)"/><path class="cls-43" d="M211.66,292.1c-8.86-7.32-18-16-25-25a20.24,20.24,0,0,1-1.33-1.94l-2.23,1.26c.19.29.4.59.61.89l1.19.6-.11,1.27a119.7,119.7,0,0,0,8.64,10.16c1.87,2,8.93,9,13,12.38l1.55.22.25,1.22c7.92,6.26,10.8,6.48,16.27,6.48,1.66,0,3.68,0,6.12-.07.62,0,1-.07,1-.2-6.12,0-10,.89-19.88-7.24" transform="translate(-142.02 -244.1)"/><path class="cls-44" d="M230.68,299.18c-4.11,0-6.55-1.51-8.86-2.88-2-1.15-5-3.67-9.79-7.71h-1.37l-.5-1.29c-2.31-1.95-11.16-10.23-13.61-12.89-4-4.31-6.92-7.64-8.82-10.66l-2.45,1.38a20.24,20.24,0,0,0,1.33,1.94c7,9,16.19,17.71,25,25,9.83,8.13,13.76,7.26,19.88,7.24v0c0-.14-.36-.14-.86-.14" transform="translate(-142.02 -244.1)"/><path class="cls-6" d="M252.21,299.5c-2.68,0-5.73-.12-7.2-.18l-.87,0-1.21,0c-1.61.07-4.31.17-5.84.17-1.07,0-1.12-.21-1.12-.25s.14-.18.54-.18a11.36,11.36,0,0,0,2.17-.14c1.52-.31,1.83-2.71,2.1-4.64.36-3,.34-8.59.34-15.63V266c0-11.23,0-13.25-.13-15.56s-.44-4.34-2.9-4.71a13.41,13.41,0,0,0-2-.14c-.74,0-.89-.1-.89-.18s.29-.26,1.11-.26c2.43,0,5.47.13,6.93.19l.92,0,1.15,0c1.53-.07,4.09-.18,5.62-.18.81,0,1.12.16,1.12.26s-.26.18-.76.18a9.21,9.21,0,0,0-1.88.14c-1.9.4-2.3,2.5-2.42,4.71s-.16,4.33-.16,15.56v12.67c0,7,0,12.6.37,15.63.22,2.09.64,4.34,2.85,4.64a25.29,25.29,0,0,0,3.11.14c.45,0,.61.09.61.18s-.07.25-1.54.25m30,0c-6.36,0-8-.86-11.28-3.47-4.42-3.46-17.64-17.72-23.61-24.84l-.27-.35.27-.26c1.47-1.43,6.33-6.49,10.61-10.95,2.22-2.32,4.32-4.51,5.8-6,4.67-4.82,5.05-5.9,5.05-6.65,0-1-.6-1.41-1.9-1.41-.36,0-.62-.07-.62-.18s.22-.25,1-.25c1,0,1.58.05,2.2.1a25.33,25.33,0,0,0,2.62.12c1.3,0,3.32-.08,4.94-.14,1.19,0,2.21-.08,2.69-.08.88,0,1.19.15,1.19.25s-.24.18-.75.18a7.31,7.31,0,0,0-3.26.58c-1.52.65-3.59,2.37-7.93,6.56-6.22,6-14.49,14.2-16.42,16.35a0,0,0,0,0,0,.05c4.38,4.79,16.86,18.22,20.31,21.46,6,5.67,8.46,7.71,11.9,8.36a23.27,23.27,0,0,0,3.1.14c.57,0,.68.16.68.2s0,.27-1,.27h-5.33" transform="translate(-142.02 -244.1)"/><path class="cls-7" d="M271.14,248.06c1.06-.53,2.79-1.35,4.17-1.92a12.91,12.91,0,0,1,5.64-.77c0-.13-.4-.26-1.22-.26-1.15,0-5.4.21-7.63.21-2.45,0-2.73-.21-4.82-.21-.75,0-1,.13-1.08.26,1.82,0,2.36,0,3.36.77a7.69,7.69,0,0,1,1.58,1.92" transform="translate(-142.02 -244.1)"/><path class="cls-7" d="M244.14,248.56a13,13,0,0,1,2.82-2.28c1.55-.92,2.5-.91,5.1-.91,0-.13-.4-.26-1.15-.26-2.16,0-6.41.21-6.77.21s-4.61-.21-7.85-.21c-.81,0-1.12.13-1.15.26,2.77,0,4.14,0,5.89.89a11.29,11.29,0,0,1,3.11,2.3" transform="translate(-142.02 -244.1)"/><path class="cls-6" d="M247.21,298.48a11.49,11.49,0,0,1-3.07-2.35,13.54,13.54,0,0,1-2.91,2.3,8.86,8.86,0,0,1-5.3.82c0,.07.08.29,1.16.29,2.16,0,6.69-.22,7-.22s4.54.22,8.07.22c1.51,0,1.58-.22,1.58-.29-2.57.13-4.93.09-6.58-.77" transform="translate(-142.02 -244.1)"/><path class="cls-45" d="M241,246.26c-1.75-.85-3.12-.89-5.89-.89v0c0,.15.29.22.94.22a13.25,13.25,0,0,1,2,.14c2.38.36,2.74,2.24,2.88,4.68s.15,4.32.15,15.56v12.67c0,6.91,0,12.6-.36,15.62-.29,2.09-.65,4.32-2.09,4.61a11.2,11.2,0,0,1-2.16.14c-.5,0-.58.15-.58.22a8.86,8.86,0,0,0,5.3-.82,13.54,13.54,0,0,0,2.91-2.3V248.56a11.29,11.29,0,0,0-3.11-2.3" transform="translate(-142.02 -244.1)"/><path class="cls-46" d="M253.14,299a25,25,0,0,1-3.09-.14c-2.16-.29-2.6-2.52-2.81-4.61-.36-3-.36-8.71-.36-15.62V266c0-11.24,0-13.25.14-15.56.15-2.52.65-4.32,2.38-4.68a9.07,9.07,0,0,1,1.87-.14c.43,0,.79-.07.79-.22v0c-2.6,0-3.55,0-5.1.91a13,13,0,0,0-2.82,2.28v47.57a11.33,11.33,0,0,0,3.07,2.35c1.65.86,4,.9,6.58.77,0-.07-.07-.22-.65-.22" transform="translate(-142.02 -244.1)"/><path class="cls-7" d="M287.87,299a23.5,23.5,0,0,1-3.1-.14c-3.45-.65-6-2.81-11.88-8.35-3.38-3.17-15.76-16.49-20.3-21.46l-2.18.24a2.18,2.18,0,0,0-.19,1c5.74,6.26,20.53,22.1,23,24.13,6.25,5.12,9.39,4.82,15.37,4.82,0-.07-.14-.22-.72-.22" transform="translate(-142.02 -244.1)"/><path class="cls-6" d="M273.22,294.43c-2.47-2-17.26-17.87-23-24.13-.15,0-3.25.57-3.25.57l.29.37c6.34,7.56,19.3,21.46,23.62,24.84,3.38,2.67,5,3.46,11.3,3.46h5.33c.94,0,1.08-.22,1.08-.29-6,0-9.12.3-15.37-4.82" transform="translate(-142.02 -244.1)"/><path class="cls-47" d="M269,252.74c4.32-4.18,6.4-5.91,7.92-6.55a7.09,7.09,0,0,1,3.24-.58c.57,0,.79-.07.79-.22v0a12.91,12.91,0,0,0-5.64.77c-1.38.57-3.11,1.39-4.17,1.92l-20.73,21.26,2.18-.24c1.87-2.09,10.08-10.22,16.42-16.34" transform="translate(-142.02 -244.1)"/><path class="cls-48" d="M250.42,269.32l20.72-21.26a7.69,7.69,0,0,0-1.58-1.92c-1-.77-1.54-.77-3.36-.77v0c0,.15.29.22.65.22,1.36,0,1.87.5,1.87,1.37s-.72,2.16-5,6.62-14.19,14.83-16.42,17l-.24.28s3-.56,3.2-.57a2.09,2.09,0,0,1,.2-1" transform="translate(-142.02 -244.1)"/><path class="cls-49" d="M244.14,248.56v46.31h3.17c0-.2-.05-.39-.07-.59-.36-3-.36-8.71-.36-15.62V266c0-11.24,0-13.25.14-15.56a14.13,14.13,0,0,1,.22-1.87h-3.1" transform="translate(-142.02 -244.1)"/><path class="cls-50" d="M244.14,248.75H240.8a15.87,15.87,0,0,1,.17,1.68c.15,2.31.15,4.32.15,15.56v12.67c0,6.91,0,12.6-.36,15.62,0,.12,0,.23,0,.34h3.43V248.75" transform="translate(-142.02 -244.1)"/><path class="cls-51" d="M253.14,299a25,25,0,0,1-3.09-.14c-2-.26-2.5-2.13-2.75-4h-3.16v1.28a11.33,11.33,0,0,0,3.07,2.35c1.65.86,4,.9,6.58.77,0-.07-.07-.22-.65-.22" transform="translate(-142.02 -244.1)"/><path class="cls-52" d="M252.06,245.37c-2.28,0-3.29,0-4.54.61l.55.56a2.32,2.32,0,0,1,1.33-.79,9.07,9.07,0,0,1,1.87-.14c.43,0,.79-.07.79-.22v0" transform="translate(-142.02 -244.1)"/><path class="cls-53" d="M244.14,248.56a13,13,0,0,1,2.82-2.28c1.55-.92,2.5-.91,5.1-.91,0-.13-.4-.26-1.15-.26-2.16,0-6.41.21-6.77.21s-4.61-.21-7.85-.21c-.81,0-1.12.13-1.15.26,2.77,0,4.14,0,5.89.89a11.29,11.29,0,0,1,3.11,2.3" transform="translate(-142.02 -244.1)"/><path class="cls-54" d="M271.14,248.06c1.06-.53,2.79-1.35,4.17-1.92a12.91,12.91,0,0,1,5.64-.77c0-.13-.4-.26-1.22-.26-1.15,0-5.4.21-7.63.21-2.45,0-2.73-.21-4.82-.21-.75,0-1,.13-1.08.26,1.82,0,2.36,0,3.36.77a7.69,7.69,0,0,1,1.58,1.92" transform="translate(-142.02 -244.1)"/><path class="cls-55" d="M252.59,269.08l-2.18.24a2.18,2.18,0,0,0-.19,1c2.93,3.2,8.22,8.89,13,14l1.8-1.8c-4.61-4.87-9.84-10.52-12.46-13.39" transform="translate(-142.02 -244.1)"/><path class="cls-56" d="M287.87,299a23.5,23.5,0,0,1-3.1-.14c-3.45-.65-6-2.81-11.88-8.35-1.43-1.34-4.47-4.5-7.84-8.07l-1.8,1.8c4.6,4.87,8.76,9.17,10,10.16,6.25,5.12,9.39,4.82,15.37,4.82,0-.07-.14-.22-.72-.22" transform="translate(-142.02 -244.1)"/><path class="cls-57" d="M273.22,294.43c-.52-.42-1.56-1.44-3-2.85l-2.1,2.11c1.08,1,2,1.84,2.71,2.39,3.38,2.67,5,3.46,11.3,3.46h5.33c.94,0,1.08-.22,1.08-.29-6,0-9.12.3-15.37-4.82" transform="translate(-142.02 -244.1)"/><path class="cls-58" d="M250.42,269.32l2.17-.24,1.15-1.23h-1.9l-1.43,1.47" transform="translate(-142.02 -244.1)"/><path class="cls-59" d="M281,245.37a13,13,0,0,0-5.63.77l.59.59a7.34,7.34,0,0,1,1-.54,7.09,7.09,0,0,1,3.24-.58c.57,0,.79-.07.79-.22v0" transform="translate(-142.02 -244.1)"/><path class="cls-60" d="M247.21,298.48a11.49,11.49,0,0,1-3.07-2.35,13.54,13.54,0,0,1-2.91,2.3,8.86,8.86,0,0,1-5.3.82c0,.07.08.29,1.16.29,2.16,0,6.69-.22,7-.22s4.54.22,8.07.22c1.51,0,1.58-.22,1.58-.29-2.57.13-4.93.09-6.58-.77" transform="translate(-142.02 -244.1)"/><path class="cls-61" d="M244.14,248.56a11.29,11.29,0,0,0-3.11-2.3c-1.75-.85-3.12-.89-5.89-.89v0c0,.15.29.22.94.22a13.25,13.25,0,0,1,2,.14c1.79.28,2.44,1.4,2.71,3h3.34v-.18" transform="translate(-142.02 -244.1)"/><path class="cls-62" d="M250.22,270.3c-.15,0-3.25.57-3.25.57l.29.37c1.07,1.28,2.33,2.73,3.7,4.29l2.12-2.12-2.86-3.11" transform="translate(-142.02 -244.1)"/><path class="cls-63" d="M271.14,248.06a7.69,7.69,0,0,0-1.58-1.92c-1-.77-1.54-.77-3.36-.77v0c0,.15.29.22.65.22,1.36,0,1.87.5,1.87,1.37a2.39,2.39,0,0,1-.38,1.17h2.71l.09-.09" transform="translate(-142.02 -244.1)"/><path class="cls-64" d="M271.14,248.06l-20.73,21.26,2.18-.24c1.87-2.09,10.08-10.22,16.42-16.34,1.56-1.51,2.82-2.7,3.88-3.63l-1.28-1.28-.47.23" transform="translate(-142.02 -244.1)"/><path class="cls-65" d="M250.22,270.3c-.15,0-3.25.57-3.25.57l.29.37c6.07,7.25,18.23,20.31,23,24.37l2-2c-4.06-3.89-16.84-17.59-22.08-23.3" transform="translate(-142.02 -244.1)"/><path class="cls-66" d="M272.89,290.54c-3.38-3.17-15.76-16.49-20.3-21.46l-2.18.24a2.18,2.18,0,0,0-.19,1c5.24,5.71,18,19.41,22.08,23.3l1.87-1.87-1.28-1.19" transform="translate(-142.02 -244.1)"/><path class="cls-67" d="M253.14,299a25,25,0,0,1-3.09-.14c-2.16-.29-2.6-2.52-2.81-4.61-.36-3-.36-8.71-.36-15.62V266c0-11.24,0-13.25.14-15.56.15-2.52.65-4.32,2.38-4.68a9.07,9.07,0,0,1,1.87-.14c.43,0,.79-.07.79-.22v0c-2.6,0-3.55,0-5.1.91a13,13,0,0,0-2.82,2.28v47.57a11.33,11.33,0,0,0,3.07,2.35c1.65.86,4,.9,6.58.77,0-.07-.07-.22-.65-.22" transform="translate(-142.02 -244.1)"/><path class="cls-68" d="M269.56,246.14c-1-.77-1.54-.77-3.36-.77v0c0,.15.29.22.65.22,1.36,0,1.87.5,1.87,1.37s-.72,2.16-5,6.62c-3.5,3.61-10.41,10.87-14.21,14.77l.95.95,20.72-21.26a7.69,7.69,0,0,0-1.58-1.92" transform="translate(-142.02 -244.1)"/><path class="cls-69" d="M241,246.26c-1.75-.85-3.12-.89-5.89-.89v0c0,.15.29.22.94.22a13.25,13.25,0,0,1,2,.14c2.38.36,2.74,2.24,2.88,4.68s.15,4.32.15,15.56v12.67c0,6.91,0,12.6-.36,15.62-.29,2.09-.65,4.32-2.09,4.61a11.2,11.2,0,0,1-2.16.14c-.5,0-.58.15-.58.22a8.86,8.86,0,0,0,5.3-.82,13.54,13.54,0,0,0,2.91-2.3V248.56a11.29,11.29,0,0,0-3.11-2.3" transform="translate(-142.02 -244.1)"/></g><path class="cls-70" d="M294.62,305.17" transform="translate(-142.02 -244.1)"/><path class="cls-71" d="M155.8,249.49" transform="translate(-142.02 -244.1)"/><path class="cls-72" d="M287.59,286.54a.66.66,0,0,0,0-.21.33.33,0,0,0-.1-.14.55.55,0,0,0-.2-.08l-.33,0h-.3l-.38,0,0-.28.75-.07.66-.06.57,0H291l.75,0h.36a.59.59,0,0,1,.29.07.2.2,0,0,1,.1.19s0,.11,0,.21,0,.22,0,.35,0,.27-.05.42,0,.28-.07.41h-.39c0-.08,0-.15,0-.21v-.18a1.45,1.45,0,0,0,0-.4.42.42,0,0,0-.15-.24.59.59,0,0,0-.3-.12,2.25,2.25,0,0,0-.49,0h-2.25c0,.17,0,.35,0,.55s0,.41,0,.64l0,.72,0,.79,1,0h.77l.75,0a6.12,6.12,0,0,0,.63-.06.56.56,0,0,1,.06.23.18.18,0,0,1-.07.15.51.51,0,0,1-.21.09,2.35,2.35,0,0,1-.34.06h-.43l-1,0-1.16-.09c0,.12,0,.25,0,.41s0,.33,0,.51,0,.36,0,.55,0,.37,0,.55,0,.33-.05.47,0,.26-.06.35l.79-.06.69,0,.81,0,.76,0a1.81,1.81,0,0,0,.43-.05.76.76,0,0,0,.33-.18.94.94,0,0,0,.24-.33,2.1,2.1,0,0,0,.14-.54l.38,0a4,4,0,0,1-.1.81,1.23,1.23,0,0,1-.25.5.77.77,0,0,1-.38.26,1.51,1.51,0,0,1-.5.07l-.49,0-.59-.06-.69-.07c-.25,0-.52,0-.8,0l-.83,0c-.31,0-.61.06-.93.12h-.08c0-.19.08-.43.11-.71s.06-.58.09-.91,0-.67.06-1,0-.73,0-1.11,0-.73,0-1.1S287.59,286.87,287.59,286.54Z" transform="translate(-142.02 -244.1)"/><path class="cls-72" d="M294.47,289a1.25,1.25,0,0,0,0-.21.25.25,0,0,0-.08-.12.21.21,0,0,0-.13-.07.55.55,0,0,0-.19,0,2.24,2.24,0,0,0-.35,0l-.48.08-.06-.21.57-.13.5-.1a3.77,3.77,0,0,1,.4-.07l.27,0a.61.61,0,0,1,.38.11.39.39,0,0,1,.13.34,1,1,0,0,1,0,.14c0,.07,0,.16,0,.27s0,.24,0,.38,0,.29-.05.45l-.06.5c0,.17-.05.34-.07.51h0a7.22,7.22,0,0,1,.68-1.28,4.79,4.79,0,0,1,.73-.84,2.68,2.68,0,0,1,.74-.47,2.13,2.13,0,0,1,.71-.14,1.74,1.74,0,0,1,.45.06,1.07,1.07,0,0,1,.38.2,1,1,0,0,1,.27.34,1.38,1.38,0,0,1,.1.52c0,.06,0,.14,0,.23s0,.21,0,.33,0,.25-.05.39,0,.27,0,.4l0,.37c0,.12,0,.22,0,.31a1.83,1.83,0,0,0,0,.37.55.55,0,0,0,.09.23.38.38,0,0,0,.16.12,1,1,0,0,0,.26,0A2.48,2.48,0,0,0,300,292a2,2,0,0,0,.46-.12l.08.16-.37.17-.48.16-.5.12a2.69,2.69,0,0,1-.44.05.58.58,0,0,1-.35-.09.56.56,0,0,1-.2-.23,1.13,1.13,0,0,1-.08-.34c0-.13,0-.28,0-.43a5.4,5.4,0,0,1,0-.56c0-.2,0-.38.06-.56s0-.33.06-.48a2.31,2.31,0,0,0,0-.34.66.66,0,0,0-.18-.51.68.68,0,0,0-.48-.16,1.16,1.16,0,0,0-.51.14,2.63,2.63,0,0,0-.53.4,3.77,3.77,0,0,0-.5.59,5.35,5.35,0,0,0-.44.74,4.6,4.6,0,0,0-.32.83,4.46,4.46,0,0,0-.17.87l-.86.07h-.07c0-.19,0-.39.06-.61l.06-.66c0-.23,0-.45,0-.67s0-.43,0-.63,0-.36,0-.51Z" transform="translate(-142.02 -244.1)"/><path class="cls-72" d="M303.12,286a10.77,10.77,0,0,0-.3,1.15c-.08.4-.14.79-.2,1.17h1.23a5.22,5.22,0,0,0,.62,0,.32.32,0,0,1,0,.09.25.25,0,0,1,0,.07c0,.09,0,.15-.16.17a1.6,1.6,0,0,1-.43,0l-.61,0-.74-.05c0,.21-.06.42-.08.61s0,.39-.05.56,0,.34,0,.49,0,.28,0,.4a3.15,3.15,0,0,0,0,.56,1,1,0,0,0,.16.41.76.76,0,0,0,.32.27,1.31,1.31,0,0,0,.52.09A2.33,2.33,0,0,0,304,292a5.2,5.2,0,0,0,.63-.18.27.27,0,0,1,.13.2,4.71,4.71,0,0,1-.52.21,3.39,3.39,0,0,1-.51.17,3.11,3.11,0,0,1-.49.11,2.42,2.42,0,0,1-.45,0,2.09,2.09,0,0,1-.51-.07.93.93,0,0,1-.39-.26,1.09,1.09,0,0,1-.26-.49,2.53,2.53,0,0,1-.1-.79c0-.17,0-.36,0-.55s0-.38,0-.57,0-.39.05-.58.05-.38.08-.57l-.61,0-.48,0a.06.06,0,0,1,0,0,.14.14,0,0,1,.08-.12.93.93,0,0,1,.24-.09,2.45,2.45,0,0,1,.36-.08l.47,0c.06-.41.13-.79.2-1.16s.14-.68.21-1a.35.35,0,0,1,.08-.13l.13-.07.16-.05h.17l.25,0Z" transform="translate(-142.02 -244.1)"/><path class="cls-72" d="M309.21,291.46l.07,0,.07,0,.06,0a.08.08,0,0,1,0,0s0,0,0,0a2.38,2.38,0,0,1-.5.4,3.17,3.17,0,0,1-.55.28,3.28,3.28,0,0,1-.59.17,3,3,0,0,1-.59,0,2.63,2.63,0,0,1-.91-.14,2.11,2.11,0,0,1-.71-.39,1.78,1.78,0,0,1-.47-.59,1.59,1.59,0,0,1-.17-.72,2,2,0,0,1,.1-.62,2.34,2.34,0,0,1,.28-.6,2.48,2.48,0,0,1,.45-.53,3.22,3.22,0,0,1,.6-.42,3.54,3.54,0,0,1,.75-.29,3.9,3.9,0,0,1,.86-.1,2.81,2.81,0,0,1,.59.06,1.77,1.77,0,0,1,.49.17.89.89,0,0,1,.33.27.61.61,0,0,1,.12.37.67.67,0,0,1-.27.52,2.34,2.34,0,0,1-.76.37,7.43,7.43,0,0,1-1.14.26c-.44.06-.92.11-1.42.14v.05a1.65,1.65,0,0,0,.13.68,1.45,1.45,0,0,0,.37.53,1.61,1.61,0,0,0,.56.35,1.92,1.92,0,0,0,.69.12,2.34,2.34,0,0,0,.76-.13A3,3,0,0,0,309.21,291.46Zm-.78-2.35a.58.58,0,0,0-.06-.26.67.67,0,0,0-.18-.2.86.86,0,0,0-.27-.14,1.21,1.21,0,0,0-.34-.05,1.87,1.87,0,0,0-.49.07,1.76,1.76,0,0,0-.39.18,1.63,1.63,0,0,0-.31.27,3.29,3.29,0,0,0-.23.33,2.28,2.28,0,0,0-.15.36,2.21,2.21,0,0,0-.08.35,10.35,10.35,0,0,0,1.06-.1,4,4,0,0,0,.78-.19,1.19,1.19,0,0,0,.49-.27A.44.44,0,0,0,308.43,289.11Z" transform="translate(-142.02 -244.1)"/><path class="cls-72" d="M310.87,292.44h-.07c0-.19,0-.39.06-.61l.06-.66c0-.23,0-.45,0-.67s0-.43,0-.63,0-.36,0-.51,0-.28,0-.36a1,1,0,0,0,0-.19.26.26,0,0,0-.06-.13.25.25,0,0,0-.12-.08.75.75,0,0,0-.23,0h-.14l-.17,0-.2,0-.27,0-.06-.21c.46-.11.83-.2,1.12-.24a4.25,4.25,0,0,1,.57-.08.54.54,0,0,1,.39.12.42.42,0,0,1,.12.33.68.68,0,0,1,0,.12c0,.07,0,.16,0,.26s0,.23,0,.37,0,.29,0,.46,0,.32-.06.5-.05.35-.07.52h0a7.61,7.61,0,0,1,.45-1.08,4.56,4.56,0,0,1,.56-.86,2.62,2.62,0,0,1,.69-.57,1.64,1.64,0,0,1,.82-.21,1.39,1.39,0,0,1,.3,0,1,1,0,0,1,.23.1.46.46,0,0,1,.16.15.33.33,0,0,1,.06.19.46.46,0,0,1-.08.25.84.84,0,0,1-.26.22h0a1.55,1.55,0,0,0-.33-.15,1.14,1.14,0,0,0-.33,0,1.49,1.49,0,0,0-.36,0,1.17,1.17,0,0,0-.32.15,1.82,1.82,0,0,0-.44.4,4.4,4.4,0,0,0-.37.55,6.44,6.44,0,0,0-.3.65,6.35,6.35,0,0,0-.23.65,5.39,5.39,0,0,0-.16.6c0,.18-.07.34-.09.47Z" transform="translate(-142.02 -244.1)"/><path class="cls-72" d="M316.53,290.49a6.23,6.23,0,0,1,.7-1,5.3,5.3,0,0,1,.77-.74,3.24,3.24,0,0,1,.78-.47,2.1,2.1,0,0,1,.73-.16,1.5,1.5,0,0,1,.5.08,1.15,1.15,0,0,1,.38.2,1.27,1.27,0,0,1,.44.62,1.58,1.58,0,0,1,.09.36,2.14,2.14,0,0,1,0,.34,2.64,2.64,0,0,1-.12.81,2.55,2.55,0,0,1-.34.68,2.47,2.47,0,0,1-.51.56,2.94,2.94,0,0,1-.64.42,2.85,2.85,0,0,1-.71.25,3.29,3.29,0,0,1-.76.09,2.93,2.93,0,0,1-.78-.1,2.37,2.37,0,0,1-.72-.34c0,.49-.06,1-.09,1.52s0,1.07,0,1.64l-.87.07h-.09c.05-.36.08-.74.12-1.14s.07-.82.1-1.23l.09-1.25c0-.42,0-.82.06-1.21s0-.76,0-1.11,0-.67,0-.95a.2.2,0,0,1,.05-.14.38.38,0,0,1,.13-.09l.17-.05h.17a1.1,1.1,0,0,1,.25,0,1.11,1.11,0,0,1,.29.07c0,.22-.08.44-.11.65s-.05.42-.07.61,0,.38-.05.55,0,.33,0,.47Zm-.12,1.27a2.68,2.68,0,0,0,.7.31,2.42,2.42,0,0,0,.7.1,2.39,2.39,0,0,0,.86-.14,1.84,1.84,0,0,0,.67-.41,1.8,1.8,0,0,0,.45-.68A2.5,2.5,0,0,0,320,290a1.9,1.9,0,0,0,0-.41,1.64,1.64,0,0,0-.14-.39.92.92,0,0,0-.24-.28.67.67,0,0,0-.37-.11,1.24,1.24,0,0,0-.5.1,2.47,2.47,0,0,0-.49.24,4.88,4.88,0,0,0-.45.37,5.82,5.82,0,0,0-.4.45,4.85,4.85,0,0,0-.35.48,5,5,0,0,0-.28.49c-.07.16-.14.31-.19.45A2.44,2.44,0,0,0,316.41,291.76Z" transform="translate(-142.02 -244.1)"/><path class="cls-72" d="M322.57,292.44h-.07c0-.19,0-.39.06-.61l.06-.66c0-.23,0-.45,0-.67s0-.43,0-.63,0-.36,0-.51,0-.28,0-.36a1,1,0,0,0,0-.19.26.26,0,0,0-.06-.13.25.25,0,0,0-.12-.08.75.75,0,0,0-.23,0h-.14l-.17,0-.2,0-.27,0-.06-.21c.46-.11.83-.2,1.12-.24a4.25,4.25,0,0,1,.57-.08.54.54,0,0,1,.39.12.42.42,0,0,1,.12.33.68.68,0,0,1,0,.12c0,.07,0,.16,0,.26s0,.23,0,.37,0,.29,0,.46,0,.32-.06.5-.05.35-.07.52h0a7.61,7.61,0,0,1,.45-1.08,4.56,4.56,0,0,1,.56-.86,2.62,2.62,0,0,1,.69-.57,1.64,1.64,0,0,1,.82-.21,1.39,1.39,0,0,1,.3,0,1,1,0,0,1,.23.1.46.46,0,0,1,.16.15.33.33,0,0,1,.06.19.46.46,0,0,1-.08.25.84.84,0,0,1-.26.22h0a1.55,1.55,0,0,0-.33-.15,1.14,1.14,0,0,0-.33,0,1.49,1.49,0,0,0-.36,0,1.17,1.17,0,0,0-.32.15,1.82,1.82,0,0,0-.44.4,4.4,4.4,0,0,0-.37.55,6.44,6.44,0,0,0-.3.65,6.35,6.35,0,0,0-.23.65,5.39,5.39,0,0,0-.16.6c0,.18-.07.34-.09.47Z" transform="translate(-142.02 -244.1)"/><path class="cls-72" d="M328.58,288.24l-.12.67c0,.23-.06.44-.08.65s0,.41-.05.6,0,.35,0,.5,0,.38,0,.52,0,.27,0,.37a1,1,0,0,0,.08.24.39.39,0,0,0,.1.14l.15.06.2,0a2.37,2.37,0,0,0,.43-.05,2.09,2.09,0,0,0,.46-.12l.08.16-.37.17-.48.16a4.37,4.37,0,0,1-.49.12,2.17,2.17,0,0,1-.41.05l-.21,0a.49.49,0,0,1-.17-.06.56.56,0,0,1-.14-.16,1.11,1.11,0,0,1-.1-.28c0-.11,0-.26-.06-.44s0-.39,0-.64,0-.31,0-.49,0-.38,0-.6,0-.43,0-.67,0-.48,0-.73a.31.31,0,0,1,.06-.13.47.47,0,0,1,.14-.08l.17,0h.16A1.5,1.5,0,0,1,328.58,288.24Zm-.36-1.32a.71.71,0,0,1-.26,0,1.18,1.18,0,0,1-.19-.11.61.61,0,0,1-.12-.16.41.41,0,0,1,0-.19.46.46,0,0,1,.06-.23.55.55,0,0,1,.17-.17.64.64,0,0,1,.22-.1,1,1,0,0,1,.48,0l.2.1a.79.79,0,0,1,.12.15.41.41,0,0,1,.05.18.54.54,0,0,1-.05.21,1.1,1.1,0,0,1-.14.18.8.8,0,0,1-.22.13A.82.82,0,0,1,328.22,286.92Z" transform="translate(-142.02 -244.1)"/><path class="cls-72" d="M330.82,291.31a.73.73,0,0,0,.17.38,1.13,1.13,0,0,0,.34.27,2.16,2.16,0,0,0,.45.15,2.72,2.72,0,0,0,.49.05,2.12,2.12,0,0,0,.44-.05,1.61,1.61,0,0,0,.37-.12.78.78,0,0,0,.26-.2.39.39,0,0,0,.1-.27.4.4,0,0,0-.1-.28,1.28,1.28,0,0,0-.28-.21l-.4-.18-.48-.17-.45-.14-.42-.17a2.35,2.35,0,0,1-.39-.19,1.51,1.51,0,0,1-.32-.22,1.08,1.08,0,0,1-.21-.28.77.77,0,0,1-.08-.34.83.83,0,0,1,.1-.38,1.13,1.13,0,0,1,.28-.3,1.84,1.84,0,0,1,.39-.24,2.58,2.58,0,0,1,.49-.17,2.93,2.93,0,0,1,.53-.1,3.12,3.12,0,0,1,.52,0,4.23,4.23,0,0,1,.63.05,3,3,0,0,1,.52.15,1.07,1.07,0,0,1,.35.24.45.45,0,0,1,.13.32.39.39,0,0,1,0,.14.33.33,0,0,1-.11.15.53.53,0,0,1-.21.12.91.91,0,0,1-.31.05,1.61,1.61,0,0,1-.37,0v0a.85.85,0,0,0,.08-.17.34.34,0,0,0-.07-.38.7.7,0,0,0-.24-.15,1.27,1.27,0,0,0-.31-.08,2,2,0,0,0-.34,0,2.06,2.06,0,0,0-.52.06,1,1,0,0,0-.39.15.75.75,0,0,0-.25.21.35.35,0,0,0-.08.24.42.42,0,0,0,.12.29,1.2,1.2,0,0,0,.32.23,3.18,3.18,0,0,0,.45.2l.54.19.63.22a3.63,3.63,0,0,1,.56.25,1.62,1.62,0,0,1,.39.33.69.69,0,0,1,.15.44.83.83,0,0,1-.19.54,1.43,1.43,0,0,1-.5.39,2.9,2.9,0,0,1-.72.25,4.71,4.71,0,0,1-.85.08l-.45,0-.46-.07a2.77,2.77,0,0,1-.41-.12,1.42,1.42,0,0,1-.35-.16.76.76,0,0,1-.23-.2.36.36,0,0,1-.09-.24.32.32,0,0,1,.07-.19.59.59,0,0,1,.18-.13,1,1,0,0,1,.25-.07,1.43,1.43,0,0,1,.29,0Z" transform="translate(-142.02 -244.1)"/><path class="cls-72" d="M339.33,291.46l.06,0,.08,0,.06,0a.08.08,0,0,1,0,0s0,0,0,0a2.66,2.66,0,0,1-.5.4,3.25,3.25,0,0,1-.56.28,3,3,0,0,1-.58.17,3,3,0,0,1-.59,0,2.63,2.63,0,0,1-.91-.14,2.26,2.26,0,0,1-.72-.39,1.75,1.75,0,0,1-.46-.59,1.47,1.47,0,0,1-.17-.72,2,2,0,0,1,.1-.62,2,2,0,0,1,.28-.6,2.48,2.48,0,0,1,.45-.53,2.67,2.67,0,0,1,.6-.42,3.45,3.45,0,0,1,.74-.29,4,4,0,0,1,.87-.1,2.81,2.81,0,0,1,.59.06,1.7,1.7,0,0,1,.48.17,1,1,0,0,1,.34.27.61.61,0,0,1,.12.37.67.67,0,0,1-.27.52,2.3,2.3,0,0,1-.77.37,6.92,6.92,0,0,1-1.14.26c-.44.06-.91.11-1.42.14v.05a1.65,1.65,0,0,0,.14.68,1.45,1.45,0,0,0,.37.53,1.67,1.67,0,0,0,.55.35,2,2,0,0,0,.69.12,2.35,2.35,0,0,0,.77-.13A3.2,3.2,0,0,0,339.33,291.46Zm-.78-2.35a.58.58,0,0,0-.06-.26,1.12,1.12,0,0,0-.18-.2,1.15,1.15,0,0,0-.27-.14,1.27,1.27,0,0,0-.34-.05,1.81,1.81,0,0,0-.49.07,2.1,2.1,0,0,0-.4.18,1.93,1.93,0,0,0-.3.27,2.19,2.19,0,0,0-.23.33,2.28,2.28,0,0,0-.15.36,1.47,1.47,0,0,0-.08.35,9.88,9.88,0,0,0,1.05-.1,4.17,4.17,0,0,0,.79-.19,1.26,1.26,0,0,0,.49-.27A.44.44,0,0,0,338.55,289.11Z" transform="translate(-142.02 -244.1)"/><path class="cls-72" d="M341,291.31a.66.66,0,0,0,.17.38,1,1,0,0,0,.34.27,1.83,1.83,0,0,0,.45.15,2.72,2.72,0,0,0,.49.05,2.12,2.12,0,0,0,.44-.05,1.79,1.79,0,0,0,.37-.12.78.78,0,0,0,.26-.2.39.39,0,0,0,.1-.27.45.45,0,0,0-.1-.28,1.28,1.28,0,0,0-.28-.21,4.14,4.14,0,0,0-.41-.18l-.48-.17-.44-.14-.43-.17a2.69,2.69,0,0,1-.38-.19,1.51,1.51,0,0,1-.32-.22,1.08,1.08,0,0,1-.21-.28.77.77,0,0,1-.08-.34.83.83,0,0,1,.1-.38,1.27,1.27,0,0,1,.27-.3,2.23,2.23,0,0,1,.4-.24,2.48,2.48,0,0,1,.48-.17,3.29,3.29,0,0,1,.53-.1,3.23,3.23,0,0,1,.53,0,4.23,4.23,0,0,1,.63.05,3,3,0,0,1,.52.15,1.19,1.19,0,0,1,.35.24.45.45,0,0,1,.13.32.39.39,0,0,1,0,.14.33.33,0,0,1-.11.15.72.72,0,0,1-.21.12,1,1,0,0,1-.32.05,1.59,1.59,0,0,1-.36,0v0a.85.85,0,0,0,.08-.17.39.39,0,0,0,0-.15.33.33,0,0,0-.09-.23.82.82,0,0,0-.24-.15,1.41,1.41,0,0,0-.31-.08,2,2,0,0,0-.34,0,2.06,2.06,0,0,0-.52.06,1.11,1.11,0,0,0-.4.15.83.83,0,0,0-.24.21.36.36,0,0,0-.09.24.42.42,0,0,0,.12.29,1.39,1.39,0,0,0,.32.23,4,4,0,0,0,.46.2l.54.19.63.22a3.13,3.13,0,0,1,.55.25,1.5,1.5,0,0,1,.4.33.69.69,0,0,1,.15.44.83.83,0,0,1-.19.54,1.43,1.43,0,0,1-.5.39,2.9,2.9,0,0,1-.72.25,4.8,4.8,0,0,1-.85.08l-.46,0-.45-.07a2.58,2.58,0,0,1-.42-.12,1.53,1.53,0,0,1-.34-.16.65.65,0,0,1-.23-.2.36.36,0,0,1-.09-.24.26.26,0,0,1,.07-.19.59.59,0,0,1,.18-.13,1,1,0,0,1,.25-.07,1.36,1.36,0,0,1,.29,0Z" transform="translate(-142.02 -244.1)"/></svg>